<svg width="15" height="21" viewBox="0 0 15 21" fill="none" xmlns="http://www.w3.org/2000/svg">
<path d="M10.3125 4.62988H4.6875C2.09906 4.62988 0 6.72894 0 9.31738V14.9424C0 17.5308 2.09906 19.6299 4.6875 19.6299H10.3125C12.9009 19.6299 15 17.5308 15 14.9424V9.31738C15 6.72894 12.9009 4.62988 10.3125 4.62988ZM13.5938 14.9424C13.5938 16.7518 12.1219 18.2237 10.3125 18.2237H4.6875C2.87813 18.2237 1.40625 16.7518 1.40625 14.9424V9.31738C1.40625 7.50801 2.87813 6.03613 4.6875 6.03613H10.3125C12.1219 6.03613 13.5938 7.50801 13.5938 9.31738V14.9424Z" fill="white"/>
<path d="M7.5 8.37988C5.42906 8.37988 3.75 10.0589 3.75 12.1299C3.75 14.2008 5.42906 15.8799 7.5 15.8799C9.57094 15.8799 11.25 14.2008 11.25 12.1299C11.25 10.0589 9.57094 8.37988 7.5 8.37988ZM7.5 14.4736C6.20813 14.4736 5.15625 13.4218 5.15625 12.1299C5.15625 10.8371 6.20813 9.78613 7.5 9.78613C8.79187 9.78613 9.84375 10.8371 9.84375 12.1299C9.84375 13.4218 8.79187 14.4736 7.5 14.4736Z" fill="white"/>
<path d="M11.5312 8.5985C11.8071 8.5985 12.0309 8.37478 12.0309 8.09881C12.0309 7.82284 11.8071 7.59912 11.5312 7.59912C11.2552 7.59912 11.0315 7.82284 11.0315 8.09881C11.0315 8.37478 11.2552 8.5985 11.5312 8.5985Z" fill="white"/>
<g clip-path="url(#clip0_0_2181)">
<path d="M10.3125 4.62988H4.6875C2.09906 4.62988 0 6.72894 0 9.31738V14.9424C0 17.5308 2.09906 19.6299 4.6875 19.6299H10.3125C12.9009 19.6299 15 17.5308 15 14.9424V9.31738C15 6.72894 12.9009 4.62988 10.3125 4.62988ZM13.5938 14.9424C13.5938 16.7518 12.1219 18.2237 10.3125 18.2237H4.6875C2.87813 18.2237 1.40625 16.7518 1.40625 14.9424V9.31738C1.40625 7.50801 2.87813 6.03613 4.6875 6.03613H10.3125C12.1219 6.03613 13.5938 7.50801 13.5938 9.31738V14.9424Z" fill="white"/>
<path d="M7.5 8.37988C5.42906 8.37988 3.75 10.0589 3.75 12.1299C3.75 14.2008 5.42906 15.8799 7.5 15.8799C9.57094 15.8799 11.25 14.2008 11.25 12.1299C11.25 10.0589 9.57094 8.37988 7.5 8.37988ZM7.5 14.4736C6.20813 14.4736 5.15625 13.4218 5.15625 12.1299C5.15625 10.8371 6.20813 9.78613 7.5 9.78613C8.79187 9.78613 9.84375 10.8371 9.84375 12.1299C9.84375 13.4218 8.79187 14.4736 7.5 14.4736Z" fill="white"/>
<path d="M11.5312 8.5985C11.8071 8.5985 12.0309 8.37478 12.0309 8.09881C12.0309 7.82284 11.8071 7.59912 11.5312 7.59912C11.2552 7.59912 11.0315 7.82284 11.0315 8.09881C11.0315 8.37478 11.2552 8.5985 11.5312 8.5985Z" fill="white"/>
</g>
<defs>
<clipPath id="clip0_0_2181">
<rect width="15" height="15" fill="white" transform="translate(0 4.62988)"/>
</clipPath>
</defs>
</svg>
