<svg width="16" height="21" viewBox="0 0 16 21" fill="none" xmlns="http://www.w3.org/2000/svg">
<path d="M16 6.31856C15.405 6.60494 14.771 6.79477 14.11 6.88694C14.79 6.44145 15.309 5.7414 15.553 4.89761C14.919 5.31238 14.219 5.60534 13.473 5.76883C12.871 5.06549 12.013 4.62988 11.077 4.62988C9.261 4.62988 7.799 6.24724 7.799 8.22998C7.799 8.51527 7.821 8.78958 7.875 9.05073C5.148 8.90479 2.735 7.47068 1.114 5.28604C0.831 5.82479 0.665 6.44145 0.665 7.10529C0.665 8.35178 1.25 9.45671 2.122 10.0964C1.595 10.0854 1.078 9.91756 0.64 9.65312C0.64 9.66409 0.64 9.67836 0.64 9.69262C0.64 11.4417 1.777 12.8944 3.268 13.2291C3.001 13.3092 2.71 13.3476 2.408 13.3476C2.198 13.3476 1.986 13.3344 1.787 13.2861C2.212 14.7115 3.418 15.7594 4.852 15.7934C3.736 16.7513 2.319 17.3285 0.785 17.3285C0.516 17.3285 0.258 17.3153 0 17.2791C1.453 18.3072 3.175 18.8942 5.032 18.8942C11.068 18.8942 14.368 13.4079 14.368 8.65242C14.368 8.49332 14.363 8.33971 14.356 8.18719C15.007 7.68025 15.554 7.04714 16 6.31856Z" fill="white"/>
<g clip-path="url(#clip0_0_2171)">
<path d="M16 6.31856C15.405 6.60494 14.771 6.79477 14.11 6.88694C14.79 6.44145 15.309 5.7414 15.553 4.89761C14.919 5.31238 14.219 5.60534 13.473 5.76883C12.871 5.06549 12.013 4.62988 11.077 4.62988C9.261 4.62988 7.799 6.24724 7.799 8.22998C7.799 8.51527 7.821 8.78958 7.875 9.05073C5.148 8.90479 2.735 7.47068 1.114 5.28604C0.831 5.82479 0.665 6.44145 0.665 7.10529C0.665 8.35178 1.25 9.45671 2.122 10.0964C1.595 10.0854 1.078 9.91756 0.64 9.65312C0.64 9.66409 0.64 9.67836 0.64 9.69262C0.64 11.4417 1.777 12.8944 3.268 13.2291C3.001 13.3092 2.71 13.3476 2.408 13.3476C2.198 13.3476 1.986 13.3344 1.787 13.2861C2.212 14.7115 3.418 15.7594 4.852 15.7934C3.736 16.7513 2.319 17.3285 0.785 17.3285C0.516 17.3285 0.258 17.3153 0 17.2791C1.453 18.3072 3.175 18.8942 5.032 18.8942C11.068 18.8942 14.368 13.4079 14.368 8.65242C14.368 8.49332 14.363 8.33971 14.356 8.18719C15.007 7.68025 15.554 7.04714 16 6.31856Z" fill="white"/>
</g>
<defs>
<clipPath id="clip0_0_2171">
<rect width="16" height="15" fill="white" transform="translate(0 4.62988)"/>
</clipPath>
</defs>
</svg>
