<svg width="15" height="21" viewBox="0 0 15 21" fill="none" xmlns="http://www.w3.org/2000/svg">
<path d="M7.50187 4.62988H7.49813C3.36281 4.62988 0 7.99363 0 12.1299C0 13.7705 0.52875 15.2912 1.42781 16.5258L0.493125 19.3121L3.37594 18.3905C4.56187 19.1762 5.97656 19.6299 7.50187 19.6299C11.6372 19.6299 15 16.2652 15 12.1299C15 7.99457 11.6372 4.62988 7.50187 4.62988ZM11.8659 15.2208C11.685 15.7318 10.9669 16.1555 10.3941 16.2793C10.0022 16.3627 9.49031 16.4293 7.76719 15.7149C5.56312 14.8018 4.14375 12.5621 4.03312 12.4168C3.92719 12.2714 3.1425 11.2308 3.1425 10.1546C3.1425 9.07832 3.68906 8.55426 3.90938 8.32926C4.09031 8.14457 4.38937 8.06019 4.67625 8.06019C4.76906 8.06019 4.8525 8.06488 4.9275 8.06863C5.14781 8.078 5.25844 8.09113 5.40375 8.43894C5.58469 8.87488 6.02531 9.95113 6.07781 10.0618C6.13125 10.1724 6.18469 10.3224 6.10969 10.4677C6.03938 10.6177 5.9775 10.6843 5.86687 10.8118C5.75625 10.9393 5.65125 11.0368 5.54062 11.1736C5.43937 11.2927 5.325 11.4202 5.4525 11.6405C5.58 11.8561 6.02063 12.5752 6.66937 13.1527C7.50656 13.898 8.18531 14.1361 8.42812 14.2374C8.60906 14.3124 8.82469 14.2946 8.95687 14.1539C9.12469 13.973 9.33187 13.673 9.54281 13.3777C9.69281 13.1658 9.88219 13.1396 10.0809 13.2146C10.2834 13.2849 11.355 13.8146 11.5753 13.9243C11.7956 14.0349 11.9409 14.0874 11.9944 14.1802C12.0469 14.273 12.0469 14.709 11.8659 15.2208Z" fill="white"/>
<g clip-path="url(#clip0_0_2176)">
<path d="M7.50187 4.62988H7.49813C3.36281 4.62988 0 7.99363 0 12.1299C0 13.7705 0.52875 15.2912 1.42781 16.5258L0.493125 19.3121L3.37594 18.3905C4.56187 19.1762 5.97656 19.6299 7.50187 19.6299C11.6372 19.6299 15 16.2652 15 12.1299C15 7.99457 11.6372 4.62988 7.50187 4.62988ZM11.8659 15.2208C11.685 15.7318 10.9669 16.1555 10.3941 16.2793C10.0022 16.3627 9.49031 16.4293 7.76719 15.7149C5.56312 14.8018 4.14375 12.5621 4.03312 12.4168C3.92719 12.2714 3.1425 11.2308 3.1425 10.1546C3.1425 9.07832 3.68906 8.55426 3.90938 8.32926C4.09031 8.14457 4.38937 8.06019 4.67625 8.06019C4.76906 8.06019 4.8525 8.06488 4.9275 8.06863C5.14781 8.078 5.25844 8.09113 5.40375 8.43894C5.58469 8.87488 6.02531 9.95113 6.07781 10.0618C6.13125 10.1724 6.18469 10.3224 6.10969 10.4677C6.03938 10.6177 5.9775 10.6843 5.86687 10.8118C5.75625 10.9393 5.65125 11.0368 5.54062 11.1736C5.43937 11.2927 5.325 11.4202 5.4525 11.6405C5.58 11.8561 6.02063 12.5752 6.66937 13.1527C7.50656 13.898 8.18531 14.1361 8.42812 14.2374C8.60906 14.3124 8.82469 14.2946 8.95687 14.1539C9.12469 13.973 9.33187 13.673 9.54281 13.3777C9.69281 13.1658 9.88219 13.1396 10.0809 13.2146C10.2834 13.2849 11.355 13.8146 11.5753 13.9243C11.7956 14.0349 11.9409 14.0874 11.9944 14.1802C12.0469 14.273 12.0469 14.709 11.8659 15.2208Z" fill="white"/>
</g>
<defs>
<clipPath id="clip0_0_2176">
<rect width="15" height="15" fill="white" transform="translate(0 4.62988)"/>
</clipPath>
</defs>
</svg>
