<svg width="21" height="21" viewBox="0 0 21 21" fill="none" xmlns="http://www.w3.org/2000/svg">
<path d="M20.1075 5.21591C19.5379 4.06081 18.9197 3.84834 17.661 3.76754C16.4036 3.67028 13.2418 3.62988 10.5026 3.62988C7.75819 3.62988 4.59506 3.67028 3.339 3.76604C2.08294 3.84834 1.46344 4.05931 0.888563 5.21591C0.301875 6.36953 0 8.35656 0 11.8548C0 11.8578 0 11.8593 0 11.8593C0 11.8623 0 11.8638 0 11.8638V11.8668C0 15.3501 0.301875 17.3521 0.888563 18.4937C1.46344 19.6489 2.08162 19.8583 3.33769 19.9556C4.59506 20.0394 7.75819 20.0888 10.5026 20.0888C13.2418 20.0888 16.4036 20.0394 17.6623 19.9571C18.921 19.8598 19.5392 19.6503 20.1088 18.4952C20.7008 17.3536 21 15.3516 21 11.8683C21 11.8683 21 11.8638 21 11.8608V11.8563C21 8.35656 20.7008 6.36953 20.1075 5.21591ZM7.875 16.3481V7.37053L14.4375 11.8593L7.875 16.3481Z" fill="white"/>
<g clip-path="url(#clip0_0_2190)">
<path d="M20.1075 5.21591C19.5379 4.06081 18.9197 3.84834 17.661 3.76754C16.4036 3.67028 13.2418 3.62988 10.5026 3.62988C7.75819 3.62988 4.59506 3.67028 3.339 3.76604C2.08294 3.84834 1.46344 4.05931 0.888563 5.21591C0.301875 6.36953 0 8.35656 0 11.8548C0 11.8578 0 11.8593 0 11.8593C0 11.8623 0 11.8638 0 11.8638V11.8668C0 15.3501 0.301875 17.3521 0.888563 18.4937C1.46344 19.6489 2.08162 19.8583 3.33769 19.9556C4.59506 20.0394 7.75819 20.0888 10.5026 20.0888C13.2418 20.0888 16.4036 20.0394 17.6623 19.9571C18.921 19.8598 19.5392 19.6503 20.1088 18.4952C20.7008 17.3536 21 15.3516 21 11.8683C21 11.8683 21 11.8638 21 11.8608V11.8563C21 8.35656 20.7008 6.36953 20.1075 5.21591ZM7.875 16.3481V7.37053L14.4375 11.8593L7.875 16.3481Z" fill="white"/>
</g>
<defs>
<clipPath id="clip0_0_2190">
<rect width="21" height="17" fill="white" transform="translate(0 3.62988)"/>
</clipPath>
</defs>
</svg>
