<svg width="25" height="28" viewBox="0 0 25 28" fill="none" xmlns="http://www.w3.org/2000/svg">
<path d="M18.028 0.34038C17.9663 0.276425 15.746 0.365626 13.8139 2.3129C11.8817 4.25848 12.179 6.49019 12.2225 6.54741C12.266 6.60463 14.9775 6.69383 16.7085 4.43015C18.4394 2.16647 18.0896 0.406019 18.028 0.34038ZM24.0346 20.0874C23.9476 19.9258 19.8205 18.0106 20.2048 14.3281C20.5891 10.6439 23.2408 9.63409 23.2824 9.5247C23.3241 9.4153 22.2004 8.1951 21.0096 7.57743C20.1352 7.14194 19.1676 6.89244 18.1766 6.84699C17.9808 6.84194 17.3012 6.6871 15.9037 7.04222C14.983 7.27616 12.9076 8.03353 12.3367 8.06382C11.7639 8.09412 10.0602 7.18528 8.22772 6.9446C7.05503 6.73423 5.81164 7.16508 4.9217 7.49664C4.03357 7.82651 2.34431 8.76565 1.16255 11.2616C-0.019205 13.7558 0.598861 17.7076 1.04111 18.9362C1.48337 20.1632 2.17393 22.1744 3.34844 23.642C4.39245 25.2981 5.77721 26.4476 6.3554 26.8381C6.93359 27.2285 8.56485 27.4877 9.69586 26.9508C10.6057 26.4325 12.2479 26.1346 12.8968 26.1564C13.5438 26.1783 14.8198 26.4156 16.1266 27.0636C17.1616 27.3951 18.1403 27.2571 19.1209 26.8869C20.1015 26.5149 21.5207 25.1045 23.1773 22.2451C23.8063 20.9155 24.0926 20.1968 24.0346 20.0874Z" fill="#161439"/>
</svg>
