<svg width="17" height="14" viewBox="0 0 17 14" fill="none" xmlns="http://www.w3.org/2000/svg">
<path d="M1.78131 13.5405C1.31847 13.5405 0.922117 13.3756 0.592241 13.0457C0.262365 12.7158 0.097707 12.3197 0.098268 11.8575V1.75922C0.098268 1.29638 0.263206 0.900022 0.593083 0.570146C0.922959 0.24027 1.31903 0.0756123 1.78131 0.0761733H15.2457C15.7085 0.0761733 16.1048 0.241111 16.4347 0.570988C16.7646 0.900864 16.9293 1.29694 16.9287 1.75922V11.8575C16.9287 12.3203 16.7638 12.7167 16.4339 13.0465C16.104 13.3764 15.7079 13.5411 15.2457 13.5405H1.78131ZM8.51348 7.64986L1.78131 3.44226V11.8575H15.2457V3.44226L8.51348 7.64986ZM8.51348 5.96682L15.2457 1.75922H1.78131L8.51348 5.96682ZM1.78131 3.44226V1.75922V11.8575V3.44226Z" fill="#555C60"/>
</svg>
