<svg width="26" height="26" viewBox="0 0 26 26" fill="none" xmlns="http://www.w3.org/2000/svg">
<g clip-path="url(#clip0_0_13155)">
<path d="M8.89197 0.999157C6.36954 1.87421 4.19419 3.53509 2.68547 5.73785C1.17674 7.9406 0.414149 10.5691 0.509709 13.2373C0.60527 15.9055 1.55394 18.4727 3.21639 20.5619C4.87883 22.6511 7.16741 24.1521 9.74598 24.8444C11.8365 25.3839 14.0267 25.4076 16.1284 24.9135C18.0323 24.4858 19.7925 23.5711 21.2367 22.2587C22.7398 20.8512 23.8308 19.0606 24.3924 17.0794C25.0027 14.925 25.1113 12.6594 24.7099 10.4564H12.9707V15.3261H19.7693C19.6334 16.1027 19.3422 16.844 18.9132 17.5055C18.4842 18.167 17.9261 18.7352 17.2723 19.176C16.4423 19.7254 15.5064 20.0949 14.5249 20.2608C13.5406 20.4439 12.531 20.4439 11.5467 20.2608C10.549 20.0547 9.60524 19.643 8.7756 19.0518C7.44261 18.1082 6.44171 16.7677 5.91574 15.2215C5.38103 13.6464 5.38103 11.9388 5.91574 10.3637C6.29014 9.25964 6.90907 8.25439 7.72633 7.42299C8.66158 6.45408 9.84564 5.7615 11.1486 5.42124C12.4516 5.08097 13.8231 5.10617 15.1126 5.49406C16.1201 5.80317 17.0414 6.3435 17.8029 7.07192C18.5695 6.30929 19.3347 5.54469 20.0987 4.77811C20.4931 4.3659 20.9231 3.97341 21.3116 3.55133C20.149 2.46955 18.7844 1.62774 17.296 1.07411C14.5855 0.0898999 11.6196 0.0634503 8.89197 0.999157Z" fill="white"/>
<path d="M8.89164 0.998895C11.6191 0.0625522 14.5849 0.0883055 17.2957 1.07187C18.7844 1.62927 20.1483 2.47513 21.3093 3.56093C20.9149 3.98301 20.4987 4.37747 20.0964 4.78771C19.3311 5.55166 18.5665 6.31297 17.8026 7.07165C17.041 6.34324 16.1198 5.80291 15.1123 5.4938C13.8232 5.10455 12.4517 5.07789 11.1484 5.41677C9.84509 5.75564 8.66031 6.44695 7.72402 7.41484C6.90676 8.24624 6.28784 9.25149 5.91344 10.3556L1.82483 7.18999C3.2883 4.28785 5.82222 2.06794 8.89164 0.998895Z" fill="#E33629"/>
<path d="M0.740533 10.3259C0.96013 9.23675 1.32498 8.182 1.82531 7.18994L5.91392 10.3634C5.3792 11.9385 5.3792 13.6461 5.91392 15.2212C4.5517 16.2731 3.18883 17.3303 1.82531 18.3927C0.573183 15.9003 0.191308 13.0605 0.740533 10.3259Z" fill="#F8BD00"/>
<path d="M12.9709 10.4541H24.7101C25.1115 12.6571 25.0029 14.9227 24.3926 17.0771C23.8309 19.0583 22.7399 20.8489 21.2369 22.2564C19.9174 21.2269 18.592 20.2052 17.2725 19.1757C17.9267 18.7344 18.485 18.1656 18.9141 17.5034C19.3432 16.8412 19.6341 16.0992 19.7695 15.3218H12.9709C12.9689 13.7005 12.9709 12.0773 12.9709 10.4541Z" fill="#587DBD"/>
<path d="M1.82318 18.3929C3.18671 17.341 4.54958 16.2839 5.91179 15.2214C6.43881 16.7681 7.44113 18.1087 8.77559 19.0517C9.60781 19.6401 10.5536 20.0486 11.5526 20.2508C12.5369 20.4339 13.5465 20.4339 14.5308 20.2508C15.5123 20.0849 16.4482 19.7154 17.2782 19.1661C18.5977 20.1956 19.9231 21.2173 21.2426 22.2468C19.7986 23.5598 18.0384 24.4753 16.1343 24.9035C14.0326 25.3976 11.8424 25.3739 9.75189 24.8345C8.0985 24.393 6.55412 23.6148 5.21556 22.5486C3.7989 21.4236 2.64176 20.0061 1.82318 18.3929Z" fill="#319F43"/>
</g>
<defs>
<clipPath id="clip0_0_13155">
<rect width="25.2456" height="25.2456" fill="white" transform="translate(0.0974731 0.168457)"/>
</clipPath>
</defs>
</svg>
