<svg width="17" height="17" viewBox="0 0 17 17" fill="none" xmlns="http://www.w3.org/2000/svg">
<path d="M15.526 8.39842C15.526 12.2715 12.3864 15.4111 8.51329 15.4111C4.64019 15.4111 1.50061 12.2715 1.50061 8.39842C1.50061 4.52532 4.64019 1.38574 8.51329 1.38574C12.3864 1.38574 15.526 4.52532 15.526 8.39842Z" stroke="#555C60" stroke-width="1.26228" stroke-linecap="round" stroke-linejoin="round"/>
<path d="M8.51356 9.09975C8.88553 9.09975 9.24227 8.95198 9.5053 8.68896C9.76833 8.42593 9.91609 8.06919 9.91609 7.69721C9.91609 7.32524 9.76833 6.9685 9.5053 6.70547C9.24227 6.44244 8.88553 6.29468 8.51356 6.29468C8.14158 6.29468 7.78484 6.44244 7.52182 6.70547C7.25879 6.9685 7.11102 7.32524 7.11102 7.69721C7.11102 8.06919 7.25879 8.42593 7.52182 8.68896C7.78484 8.95198 8.14158 9.09975 8.51356 9.09975ZM8.51356 9.09975V11.2036" stroke="#555C60" stroke-width="1.26228" stroke-linecap="round" stroke-linejoin="round"/>
</svg>
