<svg width="11" height="15" viewBox="0 0 11 15" fill="none" xmlns="http://www.w3.org/2000/svg">
<path d="M1.30579 14.1906V12.7881C1.30579 12.0442 1.60131 11.3307 2.12735 10.8047C2.65339 10.2786 3.36685 9.98311 4.11079 9.98311H6.91579C7.65972 9.98311 8.37318 10.2786 8.89922 10.8047C9.42526 11.3307 9.72079 12.0442 9.72079 12.7881V14.1906M2.70829 4.37312C2.70829 5.11705 3.00381 5.83051 3.52985 6.35655C4.05589 6.88259 4.76935 7.17811 5.51329 7.17811C6.25722 7.17811 6.97068 6.88259 7.49672 6.35655C8.02276 5.83051 8.31829 5.11705 8.31829 4.37312C8.31829 3.62918 8.02276 2.91572 7.49672 2.38968C6.97068 1.86364 6.25722 1.56812 5.51329 1.56812C4.76935 1.56812 4.05589 1.86364 3.52985 2.38968C3.00381 2.91572 2.70829 3.62918 2.70829 4.37312Z" stroke="#555C60" stroke-width="1.5" stroke-linecap="round" stroke-linejoin="round"/>
</svg>
