<svg width="14" height="14" viewBox="0 0 14 14" fill="none" xmlns="http://www.w3.org/2000/svg">
<path d="M2.33301 5.27317C2.33301 5.14873 2.36412 5.03206 2.42634 4.92317C2.48856 4.81428 2.57412 4.74428 2.68301 4.71317C2.7919 4.68206 2.90856 4.67428 3.03301 4.68984C3.15745 4.70539 3.25079 4.75984 3.31301 4.85317L6.99967 8.49317L10.6863 4.85317C10.7797 4.72873 10.9119 4.6665 11.083 4.6665C11.2541 4.6665 11.3941 4.72095 11.503 4.82984C11.6119 4.93873 11.6663 5.07873 11.6663 5.24984C11.6663 5.42095 11.6041 5.55317 11.4797 5.6465L7.41967 9.75317C7.29523 9.8465 7.15523 9.89317 6.99967 9.89317C6.84412 9.89317 6.70412 9.8465 6.57967 9.75317L2.51967 5.6465C2.39523 5.55317 2.33301 5.41317 2.33301 5.2265V5.27317Z" fill="#161439"/>
</svg>
