<svg width="30" height="30" viewBox="0 0 30 30" fill="none" xmlns="http://www.w3.org/2000/svg">
<path d="M16.875 20H5C4.66848 20 4.35054 19.8683 4.11612 19.6339C3.8817 19.3995 3.75 19.0815 3.75 18.75V6.25C3.75 5.91848 3.8817 5.60054 4.11612 5.36612C4.35054 5.1317 4.66848 5 5 5H25C25.3315 5 25.6495 5.1317 25.8839 5.36612C26.1183 5.60054 26.25 5.91848 26.25 6.25V15.625M8.75 25H15M11.25 20V25M23.75 20V27.5M23.75 27.5L27.5 23.75M23.75 27.5L20 23.75" stroke="#161439" stroke-width="2" stroke-linecap="round" stroke-linejoin="round"/>
</svg>
