<svg width="212" height="48" viewBox="0 0 212 48" fill="none" xmlns="http://www.w3.org/2000/svg">
<path d="M66.9586 24.9365C66.0188 24.9365 65.3052 24.9191 64.8178 24.8842C63.321 31.4285 62.4856 35.9711 62.3115 38.5123C60.8147 39.2433 58.5347 39.6088 55.4714 39.6088C54.81 39.6088 54.3575 39.5914 54.1138 39.5565C54.3575 37.5028 55.4018 32.3509 57.2467 24.101C59.0916 15.8163 60.0141 10.5949 60.0141 8.43666C60.0141 8.01894 59.7704 7.47939 59.2831 6.81801C58.8306 6.12181 58.3606 5.54745 57.8733 5.09493L57.1945 4.41614L57.3512 3.63291C63.1992 2.76267 67.9333 2.32755 71.5535 2.32755C78.7243 2.32755 82.3097 5.25157 82.3097 11.0996C82.3097 14.9983 81.0218 18.2878 78.4458 20.9682C75.8699 23.6137 72.0409 24.9365 66.9586 24.9365ZM66.1232 21.4381C68.8035 21.4381 70.8225 20.4286 72.1801 18.4096C73.5725 16.3907 74.2687 13.6929 74.2687 10.3164C74.2687 8.92399 74.0076 7.79268 73.4855 6.92243C72.9633 6.01738 72.1975 5.56486 71.188 5.56486C70.5266 5.56486 69.7086 5.68669 68.7339 5.93036C68.177 9.58538 67.1327 14.7546 65.6011 21.4381H66.1232ZM105.07 36.2148C102.111 38.7559 99.5004 40.0265 97.2378 40.0265C95.01 40.0265 93.722 38.9126 93.3739 36.6847C92.3296 37.729 91.1635 38.5471 89.8755 39.1388C88.5876 39.7306 87.4563 40.0265 86.4816 40.0265C84.8107 40.0265 83.3835 39.2955 82.2 37.8335C81.0165 36.3715 80.4247 34.1088 80.4247 31.0456C80.4247 26.4507 81.3994 22.8479 83.3487 20.2372C85.2981 17.5916 87.4911 16.2688 89.9277 16.2688C92.3992 16.2688 94.4704 16.8258 96.1413 17.9397C97.2204 12.3005 97.7599 7.8623 97.7599 4.62499L97.4989 2.43198C100.11 1.52693 102.668 1.0744 105.174 1.0744C105.453 1.66617 105.592 2.34496 105.592 3.11077C105.592 5.65188 104.826 10.8211 103.295 18.6185C101.763 26.3811 100.997 31.6547 100.997 34.4395C100.997 35.275 101.189 35.6927 101.572 35.6927C101.78 35.6927 102.442 35.362 103.556 34.7006L104.078 34.3873L105.07 36.2148ZM92.4863 19.3495C91.2679 19.3495 90.2062 20.5504 89.3012 22.9523C88.4309 25.3542 87.9958 27.7386 87.9958 30.1057C87.9958 32.438 88.1525 33.9348 88.4657 34.5962C88.8138 35.2575 89.3186 35.5882 89.98 35.5882C91.1287 35.5882 92.26 35.1183 93.3739 34.1784C93.4783 32.7861 94.2616 28.1564 95.7236 20.2894C94.54 19.6628 93.4609 19.3495 92.4863 19.3495ZM120.21 16.8954C120.14 17.6612 119.827 18.6707 119.27 19.9239C117.947 19.7846 116.642 19.715 115.354 19.715H115.145C114.414 28.313 113.735 34.6658 113.109 38.7733C112.482 42.8809 111.664 45.7527 110.654 47.3887C109.401 47.3539 108.096 47.1799 106.738 46.8666C105.416 46.5881 104.511 46.2922 104.023 45.9789C104.859 43.403 105.694 39.5217 106.53 34.3351C107.4 29.1484 107.957 24.3621 108.2 19.9761C107.226 20.0457 106.147 20.1675 104.963 20.3416C104.859 19.8891 104.806 19.4365 104.806 18.984C104.806 18.4967 104.876 17.8005 105.015 16.8954H108.357C108.427 13.867 108.583 11.5695 108.827 10.0031C109.245 7.21832 110.202 5.04271 111.699 3.47627C113.23 1.87503 115.197 1.0744 117.599 1.0744C119.131 1.0744 120.332 1.4225 121.202 2.11869C122.107 2.78008 122.559 3.84177 122.559 5.30378C122.559 6.76579 121.898 8.66292 120.575 10.9952C119.252 13.2926 117.512 15.2594 115.354 16.8954H120.21ZM115.458 13.6059C116.816 12.4572 117.878 11.1866 118.643 9.79424C119.409 8.40185 119.792 7.1487 119.792 6.03478C119.792 4.88606 119.427 4.3117 118.696 4.3117C117.164 4.3117 116.189 6.0696 115.772 9.58538C115.632 10.7689 115.528 12.1091 115.458 13.6059Z" fill="#83858E"/>
<path d="M132.904 40.1997H130.746V32.6477C130.746 31.6552 130.502 30.7489 130.013 29.929C129.538 29.1091 128.891 28.4617 128.071 27.987C127.251 27.498 126.345 27.2534 125.352 27.2534H124.187V40.1997H122.029V25.0957H125.352C126.719 25.0957 127.97 25.4338 129.107 26.1098C130.257 26.7859 131.164 27.6706 131.825 28.7638C132.487 27.6706 133.386 26.7859 134.522 26.1098C135.673 25.4338 136.932 25.0957 138.298 25.0957H141.621V40.1997H139.464V27.2534H138.298C137.306 27.2534 136.4 27.498 135.58 27.987C134.774 28.4617 134.127 29.1091 133.638 29.929C133.149 30.7489 132.904 31.6552 132.904 32.6477V40.1997ZM157.851 40.1997H147.062C146.372 40.1997 145.739 40.0343 145.164 39.7034C144.588 39.3582 144.128 38.9051 143.783 38.3441C143.452 37.7687 143.286 37.1286 143.286 36.4237C143.286 35.7189 143.452 35.0859 143.783 34.5249C144.128 33.9495 144.588 33.4964 145.164 33.1656C145.739 32.8203 146.372 32.6477 147.062 32.6477H154.614V34.8054H147.062C146.617 34.8054 146.235 34.9637 145.919 35.2801C145.602 35.5966 145.444 35.9778 145.444 36.4237C145.444 36.8696 145.602 37.2508 145.919 37.5673C146.235 37.8838 146.617 38.042 147.062 38.042H155.693V32.1083C155.693 31.6624 155.535 31.2812 155.219 30.9647C154.902 30.6482 154.521 30.49 154.075 30.49H145.444V28.3323H154.075C154.78 28.3323 155.413 28.5049 155.974 28.8501C156.549 29.181 157.002 29.6341 157.333 30.2095C157.678 30.7705 157.851 31.4034 157.851 32.1083V40.1997ZM174.263 40.1997H171.178L164.877 35.1291L162.374 37.1789V40.1997H160.216V24.0169H162.374V34.8917L170.228 28.3323H173.163L166.452 33.8345L174.263 40.1997ZM177.606 25.6351C177.606 26.0811 177.448 26.4623 177.132 26.7787C176.815 27.0952 176.434 27.2534 175.988 27.2534C175.542 27.2534 175.161 27.0952 174.844 26.7787C174.528 26.4623 174.37 26.0811 174.37 25.6351C174.37 25.1892 174.528 24.808 174.844 24.4916C175.161 24.1751 175.542 24.0169 175.988 24.0169C176.434 24.0169 176.815 24.1751 177.132 24.4916C177.448 24.808 177.606 25.1892 177.606 25.6351ZM177.067 40.1997H174.909V28.3323H177.067V40.1997ZM181.687 40.1997H179.53V28.3323H187.621C188.441 28.3323 189.203 28.4905 189.908 28.807C190.627 29.1091 191.253 29.5334 191.785 30.08C192.332 30.6267 192.756 31.2596 193.059 31.9788C193.361 32.6837 193.512 33.4461 193.512 34.266V40.1997H191.354V34.266C191.354 33.5755 191.188 32.9498 190.858 32.3888C190.527 31.8134 190.074 31.3531 189.498 31.0078C188.937 30.6626 188.312 30.49 187.621 30.49H181.687V40.1997ZM209.008 40.7391C209.008 41.4296 208.836 42.0625 208.491 42.6379C208.16 43.2133 207.707 43.6664 207.131 43.9973C206.556 44.3425 205.923 44.5151 205.232 44.5151H196.602V42.3574H205.232C205.678 42.3574 206.06 42.1992 206.376 41.8827C206.692 41.5663 206.851 41.1851 206.851 40.7391V30.49H200.917C200.227 30.49 199.601 30.6626 199.04 31.0078C198.479 31.3531 198.026 31.8134 197.68 32.3888C197.35 32.9498 197.184 33.5755 197.184 34.266C197.184 34.9565 197.35 35.5894 197.68 36.1648C198.026 36.7258 198.479 37.1789 199.04 37.5241C199.601 37.855 200.227 38.0276 200.917 38.042H205.772V40.1997H200.917C200.097 40.1997 199.327 40.0487 198.608 39.7466C197.903 39.4301 197.278 38.9986 196.731 38.452C196.199 37.9053 195.782 37.2796 195.48 36.5747C195.177 35.8555 195.026 35.0859 195.026 34.266C195.026 33.4461 195.177 32.6837 195.48 31.9788C195.782 31.2596 196.199 30.6267 196.731 30.08C197.278 29.5334 197.903 29.1091 198.608 28.807C199.327 28.4905 200.097 28.3323 200.917 28.3323H209.008V40.7391Z" fill="#51BCD0"/>
<path d="M30.4804 23.8923V22.3273C30.4804 22.1187 30.4804 22.0143 30.4804 21.9622C30.4804 21.91 30.4282 21.8578 30.3761 21.8578C30.3239 21.8578 30.2717 21.8057 30.1152 21.8057V24.5184C30.2717 24.5184 30.3761 24.4662 30.3761 24.414C30.4804 24.3097 30.4804 24.1532 30.4804 23.8923Z" fill="#51BCD0"/>
<path d="M23.5415 19.0409H34.1314V15.4414L26.9845 16.1196V8.34668H11.2822V36.5169H34.1314V27.1268H23.5415V19.0409Z" fill="#51BCD0"/>
<path d="M27.8194 22.7447C27.8716 22.6925 27.8716 22.5882 27.8716 22.4317V22.1187C27.8716 21.9622 27.8716 21.91 27.8194 21.8578C27.7673 21.8057 27.6629 21.8057 27.5586 21.8057V22.849C27.6108 22.849 27.6108 22.849 27.6629 22.849C27.7151 22.7968 27.8194 22.7968 27.8194 22.7447Z" fill="#51BCD0"/>
<path d="M28.0283 9.0249V14.972L33.5059 14.4503L28.0283 9.0249Z" fill="#51BCD0"/>
<path d="M23.386 0C11.0224 0 0.954102 10.0682 0.954102 22.4319C0.954102 34.7955 11.0224 44.8637 23.386 44.8637C35.7496 44.8637 45.8178 34.7955 45.8178 22.4319C45.8178 10.0682 35.7496 0 23.386 0ZM36.5321 27.1269H35.1757V37.5603H10.2398V7.30339H27.8202L35.1757 14.659V19.041H36.5321V27.1269Z" fill="#51BCD0"/>
<path d="M24.585 26.0837H35.1749H35.4879V20.0845H35.1749H24.585V26.0837ZM31.9405 21.0756H33.7664V21.9103H33.036V22.6928H33.7142V23.4753H33.036V25.1968H31.9927V21.0756H31.9405ZM29.0713 21.0756H29.8538C30.3755 21.0756 30.7407 21.0756 30.8972 21.1278C31.0537 21.18 31.2102 21.2321 31.3145 21.3365C31.4189 21.4408 31.471 21.5452 31.471 21.7017C31.471 21.8582 31.5232 22.119 31.5232 22.4842V23.8927C31.5232 24.2578 31.5232 24.5187 31.471 24.623C31.4189 24.7273 31.3667 24.8317 31.3145 24.936C31.2102 24.9882 31.1058 25.0403 31.0015 25.0925C30.8972 25.1447 30.6885 25.1447 30.4277 25.1447H29.0713V21.0756ZM26.5151 21.0756H27.5585C27.8715 21.0756 28.0802 21.0756 28.2367 21.1278C28.3932 21.18 28.4975 21.2321 28.6018 21.3365C28.7062 21.4408 28.7583 21.5452 28.7583 21.6495C28.7583 21.7538 28.8105 21.9625 28.8105 22.2233V22.5885C28.8105 22.8493 28.7583 23.058 28.7062 23.1623C28.654 23.2667 28.5497 23.371 28.3932 23.4232C28.2367 23.4753 28.0802 23.5275 27.8193 23.5275H27.5585V25.1968H26.5151V21.0756Z" fill="#51BCD0"/>
</svg>
