<svg width="202" height="47" viewBox="0 0 202 47" fill="none" xmlns="http://www.w3.org/2000/svg">
<path d="M63.4408 25.1979C62.5375 25.1979 61.8516 25.1812 61.3832 25.1477C59.9445 31.4378 59.1415 35.804 58.9742 38.2464C57.5355 38.949 55.3441 39.3004 52.3998 39.3004C51.7641 39.3004 51.3291 39.2836 51.0949 39.2502C51.3291 37.2762 52.3329 32.3244 54.1061 24.3949C55.8794 16.432 56.766 11.4133 56.766 9.33894C56.766 8.93745 56.5318 8.41885 56.0634 7.78315C55.6285 7.114 55.1768 6.56194 54.7084 6.127L54.0559 5.47457L54.2065 4.72177C59.8274 3.88532 64.3777 3.4671 67.8573 3.4671C74.7496 3.4671 78.1957 6.27755 78.1957 11.8985C78.1957 15.6457 76.9578 18.8075 74.4819 21.3837C72.006 23.9265 68.3257 25.1979 63.4408 25.1979ZM62.6379 21.8354C65.2141 21.8354 67.1547 20.8651 68.4595 18.9246C69.7978 16.984 70.467 14.3911 70.467 11.1457C70.467 9.80735 70.216 8.71997 69.7142 7.88353C69.2123 7.01363 68.4762 6.57868 67.506 6.57868C66.8703 6.57868 66.084 6.69578 65.1472 6.92998C64.6119 10.443 63.6081 15.4115 62.136 21.8354H62.6379ZM100.072 36.0382C97.2281 38.4806 94.7187 39.7018 92.544 39.7018C90.4027 39.7018 89.1648 38.6312 88.8302 36.4899C87.8264 37.4936 86.7056 38.2799 85.4677 38.8487C84.2297 39.4175 83.1424 39.7018 82.2055 39.7018C80.5996 39.7018 79.2278 38.9992 78.0902 37.594C76.9527 36.1888 76.3839 34.014 76.3839 31.0697C76.3839 26.6533 77.3207 23.1904 79.1943 20.6811C81.068 18.1383 83.1758 16.8669 85.5179 16.8669C87.8934 16.8669 89.8841 17.4023 91.4901 18.4729C92.5273 13.0527 93.0459 8.78689 93.0459 5.67532L92.7949 3.56748C95.3043 2.69758 97.7634 2.26262 100.172 2.26262C100.44 2.83141 100.574 3.48383 100.574 4.2199C100.574 6.66232 99.8378 11.6308 98.3656 19.1253C96.8935 26.5864 96.1574 31.6553 96.1574 34.3319C96.1574 35.1349 96.3414 35.5364 96.7095 35.5364C96.9102 35.5364 97.5459 35.2185 98.6166 34.5828L99.1184 34.2817L100.072 36.0382ZM87.977 19.8279C86.806 19.8279 85.7855 20.9822 84.9156 23.2908C84.0792 25.5994 83.661 27.8913 83.661 30.1664C83.661 32.4081 83.8115 33.8467 84.1126 34.4824C84.4472 35.1181 84.9323 35.436 85.568 35.436C86.6722 35.436 87.7595 34.9843 88.8302 34.0809C88.9306 32.7426 89.6834 28.2928 91.0886 20.7313C89.951 20.1291 88.9138 19.8279 87.977 19.8279ZM114.624 17.4692C114.557 18.2052 114.256 19.1755 113.72 20.38C112.449 20.2462 111.194 20.1793 109.956 20.1793H109.756C109.053 28.4433 108.401 34.5494 107.798 38.4974C107.196 42.4454 106.41 45.2056 105.44 46.7782C104.235 46.7447 102.98 46.5774 101.676 46.2763C100.404 46.0086 99.5343 45.7242 99.0659 45.4231C99.8689 42.9473 100.672 39.2167 101.475 34.2315C102.311 29.2463 102.847 24.6459 103.081 20.4302C102.144 20.4971 101.107 20.6142 99.9693 20.7815C99.8689 20.3465 99.8187 19.9116 99.8187 19.4766C99.8187 19.0082 99.8856 18.3391 100.019 17.4692H103.231C103.298 14.5583 103.449 12.3501 103.683 10.8445C104.085 8.16792 105.005 6.07681 106.443 4.57121C107.915 3.03215 109.806 2.26262 112.114 2.26262C113.587 2.26262 114.741 2.5972 115.577 3.26636C116.447 3.90205 116.882 4.92251 116.882 6.32774C116.882 7.73297 116.246 9.55641 114.975 11.7981C113.704 14.0063 112.031 15.8967 109.956 17.4692H114.624ZM110.057 14.3074C111.362 13.2033 112.382 11.9821 113.118 10.6438C113.854 9.30548 114.222 8.101 114.222 7.03035C114.222 5.92625 113.871 5.37419 113.168 5.37419C111.696 5.37419 110.759 7.06381 110.358 10.443C110.224 11.5806 110.124 12.8687 110.057 14.3074Z" fill="white"/>
<path d="M126.824 39.248H124.751V31.9894C124.751 31.0354 124.516 30.1643 124.045 29.3762C123.589 28.5881 122.967 27.966 122.179 27.5097C121.391 27.0396 120.52 26.8046 119.566 26.8046H118.446V39.248H116.372V24.7307H119.566C120.879 24.7307 122.082 25.0556 123.174 25.7054C124.28 26.3552 125.152 27.2055 125.788 28.2563C126.424 27.2055 127.288 26.3552 128.38 25.7054C129.486 25.0556 130.696 24.7307 132.009 24.7307H135.203V39.248H133.129V26.8046H132.009C131.055 26.8046 130.184 27.0396 129.396 27.5097C128.622 27.966 128 28.5881 127.53 29.3762C127.06 30.1643 126.824 31.0354 126.824 31.9894V39.248ZM150.802 39.248H140.433C139.769 39.248 139.161 39.089 138.608 38.771C138.055 38.4392 137.612 38.0037 137.281 37.4645C136.963 36.9114 136.804 36.2962 136.804 35.6187C136.804 34.9412 136.963 34.3329 137.281 33.7937C137.612 33.2406 138.055 32.8051 138.608 32.4871C139.161 32.1553 139.769 31.9894 140.433 31.9894H147.692V34.0633H140.433C140.004 34.0633 139.638 34.2154 139.334 34.5195C139.03 34.8237 138.877 35.1901 138.877 35.6187C138.877 36.0473 139.03 36.4137 139.334 36.7179C139.638 37.022 140.004 37.1741 140.433 37.1741H148.729V31.4709C148.729 31.0423 148.576 30.6759 148.272 30.3717C147.968 30.0675 147.602 29.9154 147.173 29.9154H138.877V27.8415H147.173C147.851 27.8415 148.459 28.0075 148.998 28.3393C149.551 28.6573 149.987 29.0928 150.305 29.6458C150.637 30.1851 150.802 30.7934 150.802 31.4709V39.248ZM166.577 39.248H163.611L157.556 34.3744L155.15 36.3446V39.248H153.076V23.6937H155.15V34.1462L162.699 27.8415H165.519L159.07 33.13L166.577 39.248ZM169.79 25.2492C169.79 25.6778 169.638 26.0441 169.334 26.3483C169.03 26.6525 168.664 26.8046 168.235 26.8046C167.806 26.8046 167.44 26.6525 167.136 26.3483C166.832 26.0441 166.68 25.6778 166.68 25.2492C166.68 24.8205 166.832 24.4542 167.136 24.15C167.44 23.8458 167.806 23.6937 168.235 23.6937C168.664 23.6937 169.03 23.8458 169.334 24.15C169.638 24.4542 169.79 24.8205 169.79 25.2492ZM169.272 39.248H167.198V27.8415H169.272V39.248ZM173.713 39.248H171.639V27.8415H179.416C180.204 27.8415 180.937 27.9936 181.615 28.2978C182.306 28.5881 182.907 28.996 183.419 29.5214C183.944 30.0468 184.352 30.6551 184.643 31.3464C184.933 32.0239 185.078 32.7567 185.078 33.5448V39.248H183.004V33.5448C183.004 32.8811 182.845 32.2797 182.527 31.7405C182.209 31.1874 181.774 30.745 181.221 30.4132C180.681 30.0814 180.08 29.9154 179.416 29.9154H173.713V39.248ZM199.973 39.7665C199.973 40.4302 199.807 41.0385 199.475 41.5916C199.157 42.1446 198.722 42.5801 198.169 42.8981C197.616 43.23 197.007 43.3959 196.344 43.3959H188.048V41.322H196.344C196.772 41.322 197.139 41.1699 197.443 40.8657C197.747 40.5615 197.899 40.1951 197.899 39.7665V29.9154H192.196C191.532 29.9154 190.931 30.0814 190.391 30.4132C189.852 30.745 189.417 31.1874 189.085 31.7405C188.767 32.2797 188.608 32.8811 188.608 33.5448C188.608 34.2084 188.767 34.8168 189.085 35.3698C189.417 35.9091 189.852 36.3446 190.391 36.6764C190.931 36.9944 191.532 37.1603 192.196 37.1741H196.862V39.248H192.196C191.408 39.248 190.668 39.1029 189.977 38.8125C189.299 38.5084 188.698 38.0936 188.172 37.5682C187.661 37.0428 187.26 36.4414 186.97 35.7639C186.679 35.0726 186.534 34.3329 186.534 33.5448C186.534 32.7567 186.679 32.0239 186.97 31.3464C187.26 30.6551 187.661 30.0468 188.172 29.5214C188.698 28.996 189.299 28.5881 189.977 28.2978C190.668 27.9936 191.408 27.8415 192.196 27.8415H199.973V39.7665Z" fill="#51BCD0"/>
<path d="M28.3803 23.7566V22.2524C28.3803 22.0518 28.3803 21.9515 28.3803 21.9014C28.3803 21.8513 28.3301 21.8011 28.28 21.8011C28.2299 21.8011 28.1797 21.751 28.0293 21.751V24.3583C28.1797 24.3583 28.28 24.3082 28.28 24.258C28.3803 24.1577 28.3803 24.0073 28.3803 23.7566Z" fill="#51BCD0"/>
<path d="M21.7109 19.0943H31.8895V15.6346L25.0202 16.2864V8.81543H9.92773V35.8916H31.8895V26.8662H21.7109V19.0943Z" fill="#51BCD0"/>
<path d="M25.822 22.6535C25.8721 22.6034 25.8721 22.5031 25.8721 22.3527V22.0518C25.8721 21.9014 25.8721 21.8513 25.822 21.8011C25.7719 21.751 25.6716 21.751 25.5713 21.751V22.7538C25.6214 22.7538 25.6214 22.7538 25.6716 22.7538C25.7217 22.7037 25.822 22.7037 25.822 22.6535Z" fill="#51BCD0"/>
<path d="M26.0225 9.4668V15.1829L31.2873 14.6815L26.0225 9.4668Z" fill="#51BCD0"/>
<path d="M21.5606 0.792969C9.67721 0.792969 0 10.4702 0 22.3536C0 34.237 9.67721 43.9142 21.5606 43.9142C33.444 43.9142 43.1213 34.237 43.1213 22.3536C43.1213 10.4702 33.444 0.792969 21.5606 0.792969ZM34.1962 26.8663H32.8925V36.8945H8.9251V7.81271H25.8226L32.8925 14.8826V19.0944H34.1962V26.8663Z" fill="#51BCD0"/>
<path d="M22.7148 25.8629H32.8935H33.1943V20.0967H32.8935H22.7148V25.8629ZM29.7847 21.0494H31.5397V21.8516H30.8377V22.6037H31.4895V23.3558H30.8377V25.0105H29.8349V21.0494H29.7847ZM27.027 21.0494H27.7791C28.2805 21.0494 28.6315 21.0494 28.7819 21.0995C28.9323 21.1496 29.0828 21.1998 29.183 21.3001C29.2833 21.4003 29.3335 21.5006 29.3335 21.651C29.3335 21.8015 29.3836 22.0522 29.3836 22.4032V23.757C29.3836 24.108 29.3836 24.3587 29.3335 24.4589C29.2833 24.5592 29.2332 24.6595 29.183 24.7598C29.0828 24.8099 28.9825 24.8601 28.8822 24.9102C28.7819 24.9604 28.5813 24.9604 28.3306 24.9604H27.027V21.0494ZM24.5701 21.0494H25.5729C25.8737 21.0494 26.0743 21.0494 26.2247 21.0995C26.3751 21.1496 26.4754 21.1998 26.5757 21.3001C26.676 21.4003 26.7261 21.5006 26.7261 21.6009C26.7261 21.7012 26.7763 21.9018 26.7763 22.1525V22.5034C26.7763 22.7542 26.7261 22.9547 26.676 23.055C26.6258 23.1553 26.5256 23.2556 26.3751 23.3057C26.2247 23.3558 26.0743 23.406 25.8236 23.406H25.5729V25.0105H24.5701V21.0494Z" fill="#51BCD0"/>
</svg>
