<svg width="60" height="60" viewBox="0 0 60 60" fill="none" xmlns="http://www.w3.org/2000/svg">
<path d="M47.4997 45C49.8204 45 52.046 44.0781 53.6869 42.4372C55.3279 40.7962 56.2497 38.5706 56.2497 36.25C56.2497 33.9294 55.3279 31.7038 53.6869 30.0628C52.046 28.4219 49.8204 27.5 47.4997 27.5H44.9997C45.3645 25.8749 45.3701 24.201 45.0161 22.574C44.6621 20.947 43.9555 19.3986 42.9366 18.0173C41.9178 16.636 40.6066 15.4489 39.078 14.5237C37.5493 13.5985 35.8332 12.9533 34.0275 12.625C32.2218 12.2967 30.362 12.2917 28.5542 12.6103C26.7463 12.9289 25.0259 13.5648 23.4912 14.4818C20.3916 16.3337 18.2364 19.2179 17.4997 22.5C14.8346 22.3932 12.2136 23.176 10.0854 24.7142C7.95723 26.2525 6.45429 28.4505 5.83391 30.9321C5.21353 33.4136 5.5143 36.0242 6.68473 38.3169C7.85516 40.6097 9.82243 42.4419 12.2497 43.5M29.9998 32.5001V55.0001M29.9998 55.0001L22.4998 47.5001M29.9998 55.0001L37.4998 47.5001" stroke="#161439" stroke-width="2" stroke-linecap="round" stroke-linejoin="round"/>
</svg>
