<svg width="24" height="24" viewBox="0 0 24 24" fill="none" xmlns="http://www.w3.org/2000/svg">
<path d="M22.9999 7.43062C23.0022 7.30606 22.9424 7.18794 22.8404 7.11562L15.7289 2.06995C15.5982 1.97757 15.4239 1.97644 15.2928 2.06806L12 4.36316L8.70756 2.06806C8.57647 1.97644 8.40218 1.97757 8.27147 2.06995L1.15957 7.11562C1.05765 7.18794 0.997789 7.30606 1.00006 7.43062C1.00234 7.55556 1.06599 7.67141 1.17018 7.74032L4.35009 9.83855L1.17018 11.9368C1.06599 12.0061 1.00234 12.1215 1.00006 12.2465C0.997789 12.3714 1.05765 12.4892 1.15957 12.5615L4.65888 15.0444V18.0134C4.65888 18.1402 4.72253 18.2587 4.82824 18.3291L11.7905 22.9379C11.7954 22.9409 11.8007 22.9421 11.8056 22.9447C11.8265 22.9572 11.8481 22.9667 11.8704 22.9746C11.8807 22.9784 11.8905 22.9833 11.9007 22.986C11.9318 22.9943 11.9636 22.9992 11.9958 22.9996C11.997 22.9996 11.9985 23 11.9996 23H12.0004C12.0015 23 12.003 22.9996 12.0042 22.9996C12.0364 22.9992 12.0682 22.9943 12.0993 22.986C12.1095 22.9833 12.1193 22.978 12.1296 22.9746C12.1519 22.9663 12.1735 22.9568 12.1944 22.9447C12.1993 22.9417 12.2046 22.9409 12.2095 22.9379L19.1718 18.3291C19.2775 18.2587 19.3411 18.1402 19.3411 18.0134V15.0447L22.8404 12.5619C22.9424 12.4895 23.0022 12.3718 22.9999 12.2469C22.9977 12.1219 22.934 12.0061 22.8298 11.9372L19.6499 9.83893L22.8298 7.7407C22.934 7.67141 22.9977 7.55556 22.9999 7.43062ZM12 14.1092L5.69852 9.82946L12 5.2915L18.3015 9.82946L12 14.1092ZM8.49236 2.84155L11.3449 4.8296L5.02828 9.37892L2.04917 7.41321L8.49236 2.84155ZM5.03472 10.2948L11.3283 14.5688L8.26276 16.6728L2.04917 12.2647L5.03472 10.2948ZM18.5834 17.8101L12 22.1678L5.41663 17.8101V15.5824L8.0396 17.4432C8.10552 17.4898 8.18206 17.5133 8.25897 17.5133C8.33361 17.5133 8.409 17.4909 8.47341 17.4466L12 15.0262L15.5266 17.4462C15.5914 17.4905 15.6664 17.5129 15.741 17.5129C15.8179 17.5129 15.8945 17.4894 15.9604 17.4428L18.5834 15.582V17.8101ZM15.7372 16.6728L12.6718 14.5688L18.9653 10.2948L21.9508 12.2647L15.7372 16.6728ZM18.9717 9.37892L12.6551 4.82998L15.5076 2.84193L21.9508 7.41321L18.9717 9.37892Z" fill="#161439" stroke="#51BCD0"/>
</svg>
