<svg width="29" height="28" viewBox="0 0 29 28" fill="none" xmlns="http://www.w3.org/2000/svg">
<path d="M28.2885 0.606598C27.8452 0.194937 27.2646 -0.0196894 26.67 0.00142138H8.92987C8.32821 -0.0196894 7.74767 0.194937 7.30434 0.606598C6.86101 1.01826 6.60416 1.5777 6.57953 2.18991V4.76895H1.47424C1.09776 4.75487 0.731841 4.88857 0.453882 5.1419C0.175923 5.39523 0.0140739 5.74004 0 6.12004V21.0278C0.0140739 21.4007 0.175923 21.7456 0.453882 21.9989C0.721286 22.2417 1.06258 22.3718 1.42146 22.3718C1.43905 22.3718 1.45665 22.3718 1.47072 22.3718H6.57953V24.9579C6.60416 25.5631 6.86101 26.1225 7.30434 26.5342C7.72656 26.9283 8.27192 27.1429 8.84191 27.1429C8.87006 27.1429 8.89469 27.1429 8.92283 27.1429H26.6594C27.2611 27.164 27.8416 26.9494 28.285 26.5377C28.7283 26.126 28.9851 25.5666 29.0098 24.9544V2.18287C28.9851 1.5777 28.7283 1.01826 28.285 0.606598H28.2885ZM5.02085 17.1645L3.77532 15.919L6.12565 13.5686L3.77532 11.2183L5.02085 9.97276L7.37119 12.3231L9.72153 9.97276L10.9671 11.2183L8.61673 13.5686L10.9671 15.919L9.72153 17.1645L7.37119 14.8142L5.02085 17.1645ZM26.6665 25.3414H8.90876C8.64839 25.3661 8.41617 25.1831 8.37747 24.9509V22.3718H13.2681C13.6446 22.3859 14.0105 22.2522 14.2885 21.9989C14.5665 21.7456 14.7283 21.4007 14.7424 21.0207V18.6212H22.3669C22.8524 18.6212 23.2465 18.2271 23.2465 17.7415C23.2465 17.256 22.8524 16.8619 22.3669 16.8619H14.7424V14.4975H22.3669C22.8524 14.4975 23.2465 14.1034 23.2465 13.6179C23.2465 13.1323 22.8524 12.7383 22.3669 12.7383H14.7424V10.3739H22.3669C22.8524 10.3739 23.2465 9.9798 23.2465 9.49425C23.2465 9.0087 22.8524 8.61463 22.3669 8.61463H14.7424V6.12356C14.7283 5.7506 14.5665 5.40579 14.2885 5.15246C14.0105 4.89913 13.6446 4.76543 13.2717 4.7795H8.37395V2.21454C8.40914 1.97176 8.62025 1.79584 8.87358 1.79584C8.89117 1.79584 8.90524 1.79584 8.92283 1.79584H26.6805C26.9444 1.77121 27.1766 1.95417 27.2118 2.18639V24.9262C27.1766 25.1831 26.9409 25.3661 26.6665 25.3449V25.3414Z" fill="#217346"/>
</svg>
