<svg width="28" height="32" viewBox="0 0 28 32" fill="none" xmlns="http://www.w3.org/2000/svg">
<path d="M17.4619 9.06836H13.8691V11.4635H17.4619V9.06836Z" fill="white"/>
<path d="M21.9101 13.6025H13.8691V15.9977H21.9101V13.6025Z" fill="white"/>
<path d="M24.3305 0.0869141H11.063C9.46335 0.0869141 8.13745 1.3957 8.13745 2.99534V4.62063H7.24781C5.64818 4.62063 4.37361 5.92942 4.37361 7.53761V8.29893H3.57807C1.97844 8.29893 0.695312 9.59061 0.695312 11.1988V28.6579C0.695312 30.2575 1.97844 31.5663 3.57807 31.5663H16.1271C17.7267 31.5663 19.0013 30.2575 19.0013 28.6579V27.888H19.7882C21.3879 27.888 22.6796 26.5963 22.6796 24.9967V24.1242H24.3305C25.9301 24.1242 27.2133 22.7812 27.2133 21.1815V2.99534C27.2133 1.3957 25.9301 0.0869141 24.3305 0.0869141ZM16.6061 28.6579C16.6061 28.9402 16.4093 29.1711 16.1271 29.1711H3.57807C3.29578 29.1711 3.09048 28.9402 3.09048 28.6579V11.1988C3.09048 10.9165 3.29578 10.6941 3.57807 10.6941H4.37361V24.9967C4.37361 26.5963 5.63963 27.888 7.24781 27.888H16.6061V28.6579ZM20.2844 24.9967C20.2844 25.279 20.0705 25.4928 19.7882 25.4928H7.24781C6.96553 25.4928 6.76878 25.279 6.76878 24.9967V7.53761C6.76878 7.25532 6.95697 7.0158 7.24781 7.0158H8.13745V21.1815C8.13745 22.7812 9.45479 24.1242 11.063 24.1242H20.2844V24.9967ZM24.8181 21.2157C24.8181 21.498 24.5871 21.729 24.3048 21.729H11.0459C10.7636 21.729 10.5326 21.498 10.5326 21.2157V2.99534C10.5326 2.71305 10.7636 2.48208 11.0459 2.48208H24.3048C24.5871 2.48208 24.8181 2.71305 24.8181 2.99534V21.2157Z" fill="white"/>
</svg>
