<svg width="34" height="34" viewBox="0 0 34 34" fill="none" xmlns="http://www.w3.org/2000/svg">
<path d="M24.083 4.73119C26.2197 5.9649 27.9972 7.73527 29.2394 9.86703C30.4817 11.9988 31.1456 14.418 31.1655 16.8853C31.1855 19.3525 30.5607 21.7821 29.353 23.9337C28.1454 26.0852 26.3968 27.8841 24.2803 29.1521C22.1638 30.4202 19.7528 31.1135 17.286 31.1634C14.8192 31.2134 12.3821 30.6182 10.216 29.4368C8.04997 28.2554 6.22999 26.5288 4.93629 24.4278C3.64258 22.3269 2.92 19.9245 2.84009 17.4585L2.83301 16.9995L2.84009 16.5405C2.91943 14.0939 3.63137 11.7096 4.9065 9.6201C6.18163 7.53056 7.97643 5.80708 10.1159 4.61769C12.2554 3.4283 14.6666 2.81358 17.1144 2.83348C19.5622 2.85337 21.9631 3.50719 24.083 4.73119ZM22.2513 13.1646C22.0073 12.9207 21.6828 12.7742 21.3385 12.7525C20.9942 12.7309 20.6538 12.8356 20.3813 13.047L20.2481 13.1646L15.583 17.8283L13.7513 15.9979L13.6181 15.8804C13.3455 15.6691 13.0052 15.5645 12.661 15.5862C12.3168 15.6079 11.9923 15.7544 11.7485 15.9983C11.5046 16.2422 11.3581 16.5666 11.3363 16.9108C11.3146 17.255 11.4192 17.5954 11.6305 17.8679L11.7481 18.0011L14.5814 20.8344L14.7146 20.952C14.963 21.1448 15.2686 21.2494 15.583 21.2494C15.8975 21.2494 16.203 21.1448 16.4514 20.952L16.5846 20.8344L22.2513 15.1678L22.3688 15.0346C22.5803 14.762 22.685 14.4217 22.6633 14.0774C22.6417 13.7331 22.4952 13.4085 22.2513 13.1646Z" fill="#51BCD0"/>
</svg>
