<svg width="30" height="30" viewBox="0 0 30 30" fill="none" xmlns="http://www.w3.org/2000/svg">
<path d="M24.3838 14.7578L24.3838 14.7656C24.4037 16.0929 23.8988 17.3747 22.9785 18.3311L22.9775 18.3311L20.2168 21.0791L20.2158 21.0791C19.9084 21.3865 19.4914 21.5596 19.0566 21.5596C18.6219 21.5596 18.2049 21.3865 17.8975 21.0791C17.5901 20.7717 17.417 20.3547 17.417 19.9199C17.417 19.4852 17.5901 19.0681 17.8975 18.7607L20.2842 16.374L9.26758 16.374L9.69238 16.7998L11.6533 18.7656C11.8053 18.9174 11.9265 19.0975 12.0088 19.2959C12.0911 19.4944 12.1328 19.708 12.1328 19.9229C12.1328 20.1376 12.091 20.3505 12.0088 20.5488C11.9471 20.6976 11.8635 20.836 11.7617 20.96L11.6533 21.0791C11.5016 21.231 11.3214 21.3523 11.123 21.4346C10.9246 21.5168 10.711 21.5586 10.4961 21.5586C10.2814 21.5585 10.0685 21.5168 9.87012 21.4346C9.67168 21.3523 9.49166 21.2311 9.33984 21.0791L6.56836 18.3086C5.62247 17.3614 5.0918 16.0769 5.0918 14.7383C5.09191 13.3999 5.6226 12.116 6.56836 11.1689L9.33984 8.39844C9.64657 8.09171 10.0623 7.91904 10.4961 7.91894C10.93 7.91894 11.3465 8.09162 11.6533 8.39844C11.96 8.70517 12.1327 9.12096 12.1328 9.55469C12.1328 9.98859 11.9601 10.4051 11.6533 10.7119L9.26172 13.1035L20.2871 13.1035L19.8633 12.6777L17.9111 10.7158C17.6173 10.407 17.4559 9.99556 17.4609 9.56934C17.4661 9.14308 17.6373 8.7353 17.9385 8.43359C18.2397 8.13197 18.647 7.95993 19.0732 7.9541C19.4995 7.94829 19.9114 8.10905 20.2207 8.40234L22.9746 11.165L22.9736 11.166C23.9005 12.1296 24.4077 13.421 24.3838 14.7578Z" fill="#51BCD0" stroke="white" stroke-width="0.5"/>
<path d="M29.0977 7.19824C29.0977 7.63173 28.9256 8.0479 28.6191 8.35449C28.3126 8.66106 27.8964 8.83392 27.4629 8.83398C27.0293 8.83398 26.6133 8.66111 26.3066 8.35449C26.0001 8.04788 25.8281 7.63184 25.8281 7.19824C25.828 6.25719 25.4535 5.35488 24.7881 4.68945C24.1227 4.02402 23.2203 3.64951 22.2793 3.64941C21.8457 3.64941 21.4297 3.47748 21.123 3.1709C20.8164 2.86428 20.6436 2.44828 20.6436 2.01465C20.6436 1.5811 20.8165 1.16497 21.123 0.858398C21.4296 0.551962 21.8458 0.379882 22.2793 0.379883C24.0876 0.379979 25.8219 1.09828 27.1006 2.37695C28.3793 3.65563 29.0976 5.38994 29.0977 7.19824Z" fill="#51BCD0" stroke="white" stroke-width="0.5"/>
<path d="M8.83398 2.01465C8.83398 2.44817 8.66195 2.8643 8.35547 3.1709C8.0489 3.47747 7.63276 3.64935 7.19922 3.64941C6.25803 3.64941 5.35497 4.02394 4.68945 4.68945C4.02414 5.35487 3.65049 6.25728 3.65039 7.19824C3.65039 7.63187 3.47752 8.04787 3.1709 8.35449C2.86438 8.66095 2.44906 8.83389 2.01562 8.83398C1.582 8.83398 1.166 8.66111 0.859375 8.35449C0.552754 8.04787 0.379882 7.63187 0.379883 7.19824C0.379979 5.39002 1.0984 3.65561 2.37695 2.37695C3.65571 1.09819 5.39078 0.379883 7.19922 0.379883C7.63276 0.379943 8.0489 0.551831 8.35547 0.858398C8.66204 1.16497 8.83392 1.5811 8.83398 2.01465Z" fill="#51BCD0" stroke="white" stroke-width="0.5"/>
<path d="M8.83398 27.4619C8.83398 27.8954 8.6619 28.3116 8.35547 28.6182C8.0489 28.9247 7.63276 29.0976 7.19922 29.0977C5.39078 29.0977 3.65571 28.3793 2.37695 27.1006C1.09819 25.8218 0.379883 24.0868 0.379883 22.2783C0.379943 21.8448 0.552809 21.4286 0.859375 21.1221C1.16597 20.8156 1.58214 20.6436 2.01562 20.6436C2.44892 20.6437 2.8644 20.8158 3.1709 21.1221C3.47747 21.4286 3.65033 21.8448 3.65039 22.2783C3.65039 23.2195 4.02394 24.1226 4.68945 24.7881C5.35497 25.4536 6.25803 25.8271 7.19922 25.8271C7.63276 25.8272 8.0489 26.0001 8.35547 26.3066C8.66174 26.6131 8.83389 27.0286 8.83398 27.4619Z" fill="#51BCD0" stroke="white" stroke-width="0.5"/>
<path d="M29.0977 22.2783C29.0977 24.0868 28.3793 25.8218 27.1006 27.1006C25.8219 28.3791 24.0875 29.0976 22.2793 29.0977C21.8457 29.0977 21.4297 28.9248 21.123 28.6182C20.8164 28.3115 20.6436 27.8955 20.6436 27.4619C20.6437 27.0285 20.8166 26.6132 21.123 26.3066C21.4297 26 21.8457 25.8271 22.2793 25.8271C23.2203 25.8271 24.1227 25.4534 24.7881 24.7881C25.4536 24.1226 25.8281 23.2195 25.8281 22.2783C25.8282 21.8448 26.0001 21.4286 26.3066 21.1221C26.6132 20.8156 27.0294 20.6436 27.4629 20.6436C27.8964 20.6436 28.3126 20.8155 28.6191 21.1221C28.9257 21.4286 29.0976 21.8448 29.0977 22.2783Z" fill="#51BCD0" stroke="white" stroke-width="0.5"/>
</svg>
