<svg width="32" height="32" viewBox="0 0 32 32" fill="none" xmlns="http://www.w3.org/2000/svg">
<path d="M28.8038 0.532813L20.2814 9.05519V2.61153C20.2814 1.77923 19.599 1.0968 18.7667 1.0968C17.9344 1.0968 17.252 1.77923 17.252 2.61153V9.68027C17.252 12.1851 19.2913 14.2245 21.7961 14.2245H28.8649C29.6972 14.2245 30.3796 13.542 30.3796 12.7097C30.3796 11.8774 29.6972 11.195 28.8649 11.195H22.4212L30.9436 2.67262C31.2316 2.38467 31.3874 2.00599 31.3874 1.60166C31.3874 1.19733 31.2316 0.818642 30.9436 0.530692C30.3519 -0.0610119 29.3934 -0.0610119 28.8036 0.530692L28.8038 0.532813Z" fill="white"/>
<path d="M0.0859375 26.6618C0.0859375 29.2731 2.20616 31.3933 4.8175 31.3933H10.5038C13.1151 31.3933 15.2354 29.2731 15.2354 26.6618V20.9755C15.2354 18.3641 13.1151 16.2439 10.5038 16.2439H4.8175C2.20616 16.2439 0.0859375 18.3641 0.0859375 20.9755V26.6618ZM3.1154 20.9755C3.1154 20.0366 3.87867 19.2734 4.8175 19.2734H10.5038C11.4426 19.2734 12.2059 20.0366 12.2059 20.9755V26.6618C12.2059 27.6006 11.4426 28.3639 10.5038 28.3639H4.8175C3.87867 28.3639 3.1154 27.6006 3.1154 26.6618V20.9755Z" fill="white"/>
<path d="M29.8745 19.2754C29.0422 19.2754 28.3598 19.9579 28.3598 20.7902V24.8492C28.3598 26.2278 27.2395 27.354 25.855 27.354H21.796C20.9637 27.354 20.2812 28.0364 20.2812 28.8687C20.2812 29.701 20.9637 30.3835 21.796 30.3835H25.855C28.9042 30.3835 31.3893 27.8983 31.3893 24.8491V20.7901C31.3893 19.9578 30.7068 19.2754 29.8745 19.2754Z" fill="white"/>
<path d="M2.61048 11.1969C3.44278 11.1969 4.12521 10.5145 4.12521 9.68216V5.62313C4.12521 4.24448 5.24551 3.11833 6.63002 3.11833H10.689C11.5213 3.11833 12.2038 2.43589 12.2038 1.6036C12.2038 0.771304 11.5213 0.0888672 10.689 0.0888672H6.63002C3.58082 0.0888672 1.0957 2.57398 1.0957 5.62319V9.68221C1.0957 10.5145 1.77819 11.1969 2.61048 11.1969Z" fill="white"/>
</svg>
