<svg width="17" height="16" viewBox="0 0 17 16" fill="none" xmlns="http://www.w3.org/2000/svg">
<path d="M8.98129 13.303C8.28331 13.3879 7.57544 13.3344 6.8981 13.1458C6.22076 12.9571 5.58722 12.6368 5.03365 12.2033C4.48008 11.7698 4.01732 11.2315 3.67179 10.6191C3.32626 10.0067 3.10472 9.33228 3.01984 8.6343C2.84841 7.22465 3.24398 5.80464 4.11953 4.68665C4.99507 3.56866 6.27888 2.84428 7.68853 2.67284M6.9207 5.53842L7.78343 2.31867L4.56367 1.45594M11.6011 12.2035L11.6029 12.1971M10.3488 3.04758L10.3505 3.04114M12.5506 4.72101L12.5523 4.71458M13.6151 7.26317L13.6168 7.25673M13.2749 10.0018L13.2766 9.99539" stroke="white" stroke-width="1.33333" stroke-linecap="round" stroke-linejoin="round"/>
</svg>
