<svg width="31" height="31" viewBox="0 0 31 31" fill="none" xmlns="http://www.w3.org/2000/svg">
<path d="M7.6095 16.1825C6.90313 16.1825 6.3252 16.7604 6.3252 17.4668C6.3252 18.1732 6.90313 18.7511 7.6095 18.7511H17.1776C17.2739 18.5906 17.4023 18.4621 17.4986 18.3016L19.0398 16.4715C18.815 16.2788 18.5261 16.1504 18.205 16.1504H7.6095V16.1825Z" fill="#2B579A"/>
<path d="M6.3252 22.9249C6.3252 23.6313 6.90313 24.2092 7.6095 24.2092H15.4437C15.4437 24.0166 15.4759 23.7918 15.508 23.5992L15.9896 21.6406H7.6095C6.90313 21.6406 6.3252 22.2186 6.3252 22.9249Z" fill="#2B579A"/>
<path d="M23.3101 24.5944V25.8145C23.3101 26.874 22.4432 27.741 21.3837 27.741H4.49506C3.43551 27.741 2.56861 26.874 2.56861 25.8145V4.49506C2.56861 3.43551 3.43551 2.56861 4.49506 2.56861H21.3837C22.4432 2.56861 23.3101 3.43551 23.3101 4.49506V11.5266L25.2045 9.27909C25.3971 9.05434 25.654 8.82959 25.8787 8.66905V4.49506C25.8787 2.02278 23.8559 0 21.3837 0H4.49506C2.02278 0 0 2.02278 0 4.49506V25.8145C0 28.2868 2.02278 30.3096 4.49506 30.3096H21.3837C23.8559 30.3096 25.8787 28.2868 25.8787 25.8145V21.7368L24.0807 23.8559C23.8238 24.1449 23.567 24.3697 23.3101 24.5944Z" fill="#2B579A"/>
<path d="M17.5307 24.0808C17.4023 24.5946 17.916 25.0119 18.3976 24.8193L20.902 23.7598C21.3837 23.5671 21.801 23.246 22.1863 22.8928L18.8472 20.0674C18.5582 20.4848 18.3013 20.9664 18.205 21.4801L17.5307 24.0808Z" fill="#2B579A"/>
<path d="M29.9889 11.4949L28.7367 10.4353C28.1266 9.92161 27.2597 10.0179 26.746 10.5959L20.1318 18.4301L23.5352 21.3198L30.1815 13.4855C30.6631 12.8755 30.5989 12.0086 29.9889 11.4949Z" fill="#2B579A"/>
<path d="M9.08639 13.0355C9.21482 13.5492 9.63222 13.9345 10.1459 13.9987C10.2102 13.9987 10.2744 13.9987 10.3065 13.9987C10.756 13.9987 11.2055 13.7418 11.4302 13.3565L12.9072 10.6916L14.3841 13.3565C14.641 13.806 15.1547 14.0629 15.6684 13.9987C16.1822 13.9345 16.6317 13.5492 16.728 13.0355L18.1728 7.03135C18.3334 6.35709 17.916 5.65072 17.2417 5.49018C16.5675 5.32964 15.8611 5.74704 15.7006 6.4213L15.0263 9.24677L14.0631 7.44874C13.8383 7.03135 13.4209 6.80659 12.9393 6.80659C12.4898 6.80659 12.0403 7.06345 11.8155 7.44874L10.8202 9.24677L10.1138 6.4213C9.95329 5.74704 9.24693 5.29754 8.57267 5.49018C7.89841 5.65072 7.4489 6.35709 7.64155 7.03135L9.08639 13.0355Z" fill="#2B579A"/>
</svg>
