<svg width="143" height="72" viewBox="0 0 143 72" fill="none" xmlns="http://www.w3.org/2000/svg">
<path d="M2.46288 66.0163C4.42743 61.0158 7.03892 56.2943 10.2306 51.9725C12.2159 49.1711 14.5433 46.1523 17.1209 43.0153C19.8616 39.6419 22.8332 36.4628 26.0141 33.5008C27.7325 31.9124 29.5535 30.4386 31.4653 29.0892C33.4333 27.6645 35.5255 26.4197 37.7166 25.37C39.9493 24.2686 42.3046 23.4355 44.7333 22.8881C47.1788 22.3002 49.6929 22.0475 52.2065 22.1371L52.6221 22.1632C52.5741 22.2971 52.498 22.4303 52.4387 22.5696C50.2252 27.8427 49.7838 33.692 51.1809 39.2375C51.9199 42.0425 53.222 44.6677 55.0082 46.9532C56.8775 49.3485 59.3296 51.2247 62.1304 52.4026C63.5882 53.0685 65.1429 53.4977 66.7358 53.6743C68.5196 53.8853 70.3279 53.6869 72.0234 53.0942C73.6551 52.4773 75.1382 51.5229 76.3758 50.2935C77.6133 49.0641 78.5774 47.5874 79.2051 45.9598C80.3406 43.0107 80.4067 39.7569 79.3919 36.7641C78.4785 34.0181 77.0328 31.479 75.1375 29.292C73.2925 27.1253 71.1242 25.2563 68.7091 23.7511C65.6907 21.8794 62.3754 20.5356 58.9056 19.7775C59.3646 19.1187 59.867 18.4911 60.4093 17.8989C63.5836 14.3819 67.4999 11.6144 71.8749 9.79658C75.9429 8.07386 80.2482 6.97671 84.6446 6.5424C88.4818 6.1433 92.3533 6.21397 96.1734 6.75285C99.4093 7.28549 102.591 8.1088 105.679 9.21279C110.528 10.89 115.178 13.0937 119.546 15.7845C122.491 17.5659 125.297 19.5681 127.939 21.7737C130.047 23.5581 131.513 24.9233 132.625 26.0107C133.605 26.9378 134.226 27.5758 134.728 28.048L133.714 27.8737C130.823 27.3766 128.2 26.9755 125.98 26.6901C121.544 26.1307 118.685 25.9662 118.584 26.4869C118.482 27.0076 121.014 27.9522 125.273 29.1375C127.408 29.7415 129.952 30.3883 132.8 31.0588L133.879 31.3132C134.343 31.4278 134.815 31.5022 135.292 31.5357C135.598 31.5522 135.905 31.5421 136.209 31.5054C136.596 31.4596 136.975 31.3601 137.334 31.2098C138.075 30.9003 138.698 30.3625 139.112 29.6747C139.584 28.7662 139.88 27.777 139.986 26.7586L140.426 24.4234C142.626 11.426 143.62 0.791723 142.605 0.701742C141.589 0.611752 138.967 11.0694 136.756 24.0722L136.482 25.7869C136.087 25.1625 135.651 24.5649 135.177 23.9979C133.8 22.2783 132.294 20.6659 130.673 19.1744C128.03 16.6919 125.163 14.458 122.11 12.501C117.566 9.53344 112.687 7.11134 107.576 5.28473C104.218 4.06924 100.753 3.16977 97.2271 2.59802C93.0092 1.9784 88.7304 1.88927 84.4904 2.33271C79.5905 2.81494 74.7936 4.04569 70.2668 5.98205C65.2129 8.10208 60.6987 11.3283 57.0564 15.4234C56.0019 16.599 55.0693 17.8783 54.2726 19.2418C53.7111 19.2013 53.1497 19.1607 52.593 19.1597C49.7743 19.0998 46.9603 19.4195 44.2269 20.1102C41.5738 20.7694 39.0067 21.7353 36.5772 22.9886C34.248 24.1626 32.0302 25.5458 29.9513 27.1212C27.9831 28.5686 26.1128 30.1446 24.3527 31.8389C21.1573 34.9362 18.1947 38.2651 15.4889 41.7983C12.946 45.0672 10.7047 48.1704 8.7652 51.1078C5.67321 55.6232 3.26509 60.5705 1.61878 65.7895C1.20167 67.1796 0.891965 68.5996 0.692409 70.0371C0.586308 71.0189 0.547617 71.496 0.636674 71.5373C0.725733 71.5787 1.182 69.5138 2.48562 66.0055L2.46288 66.0163ZM56.6028 23.9665C56.7634 23.5708 56.9575 23.1871 57.1516 22.8034C60.517 23.5004 63.725 24.8125 66.6143 26.6738C68.7209 28.0382 70.6066 29.7165 72.2061 31.6507C73.7933 33.5342 74.9929 35.7125 75.7361 38.0608C76.4544 40.2885 76.3733 42.697 75.5065 44.8712C75.0936 45.9441 74.4592 46.9179 73.6448 47.7292C72.8304 48.5406 71.8542 49.1712 70.7798 49.5801C68.5345 50.1903 66.1425 49.9429 64.0696 48.886C61.8606 47.9238 59.9348 46.4117 58.4761 44.4939C57.0427 42.5793 56.0105 40.3952 55.4412 38.0723C54.8557 35.7431 54.6564 33.3337 54.8513 30.94C55.0311 28.5383 55.6156 26.1842 56.5801 23.9772" fill="white"/>
</svg>
