<svg width="257" height="231" viewBox="0 0 257 231" fill="none" xmlns="http://www.w3.org/2000/svg">
<g opacity="0.3" clip-path="url(#clip0_631_31602)">
<g clip-path="url(#clip1_631_31602)">
<g clip-path="url(#clip2_631_31602)">
<path d="M125.145 -42.2868C147.521 -65.277 171.03 -73.1499 191.059 -74.9371C219.796 -77.4973 245.962 -68.3555 253.552 -36.8708C254.986 -30.9082 255.681 -23.7741 253.097 -15.2733C249.063 -2.01024 238.534 10.1871 228.918 19.2722C204.964 41.9127 180.374 56.4816 156.474 69.1958C134.214 81.0402 112.161 91.5861 90.3164 100.834C73.2701 108.066 56.0435 114.517 41.525 113.605C39.4491 113.471 37.2639 112.995 36.9778 110.307C36.8643 108.516 37.3796 106.279 38.417 104.057C42.5562 94.7513 50.8338 89.4108 57.3331 86.7637C90.0456 73.5538 115.652 84.4295 134.182 103.696C140.129 109.89 145.695 117.799 144.404 131.357C142.685 149.565 128.509 172.55 113.942 186.157C99.3744 199.765 84.6055 205.923 70.6477 210.782C35.4424 222.991 1.82707 229.176 -29.4736 229.201" stroke="#51BCD0" stroke-width="3" stroke-miterlimit="10"/>
</g>
</g>
</g>
<defs>
<clipPath id="clip0_631_31602">
<rect width="257" height="231" fill="white"/>
</clipPath>
<clipPath id="clip1_631_31602">
<rect width="257" height="231" fill="white"/>
</clipPath>
<clipPath id="clip2_631_31602">
<rect width="257" height="231" fill="white"/>
</clipPath>
</defs>
</svg>
