<svg width="74" height="39" viewBox="0 0 74 39" fill="none" xmlns="http://www.w3.org/2000/svg">
<path d="M64.5666 10.1116C64.6378 6.71735 61.239 4.26556 63.3839 0.478478C64.015 1.17967 64.4723 1.60271 64.6864 2.04882C67.4062 7.43696 70.1837 12.9178 72.8107 18.3638C73.2389 19.256 73.6205 20.6926 73.2205 21.3933C72.4379 22.7193 71.077 22.0874 69.942 21.5075C66.3112 19.716 62.5876 17.9823 58.8814 16.1732C60.4405 14.2336 60.4405 14.2336 66.9441 16.2931C60.0103 5.80569 46.2198 4.04388 37.4692 12.7279C38.384 13.574 39.3161 14.3448 40.2309 15.191C42.8246 17.6945 44.4508 20.6088 44.7038 24.316C44.8821 26.9747 44.1164 29.2564 41.7235 30.6859C39.2553 32.0981 36.9561 31.4076 34.7732 29.8716C30.0483 26.6372 28.5507 21.4524 30.8759 16.2C31.1832 15.5572 31.34 14.8796 31.6416 13.9183C24.7615 11.7717 17.9731 11.6293 11.577 14.5918C1.64686 19.1165 1.51475 28.6041 4.65649 35.5969C5.00939 36.4717 5.623 37.2482 6.34053 38.6039C4.0588 37.8382 3.13277 36.3549 2.28202 34.8891C-1.08047 29.1937 -0.323502 21.1196 4.01157 16.0941C6.80499 12.9329 10.235 10.7915 14.3422 9.8378C20.3726 8.45638 26.3908 8.49991 32.2572 10.5707C32.8421 10.7852 33.4445 10.9245 34.18 11.174C38.4623 7.40531 43.1498 4.28559 49.2376 4.02796C55.1399 3.88606 59.6794 7.23621 64.5666 10.1116ZM35.0236 15.4143C31.4127 20.0521 32.0474 25.1959 36.3845 27.7061C37.4268 28.3437 39.0427 28.5589 40.1608 28.1829C41.7076 27.6682 41.9401 25.977 41.6686 24.4071C41.1088 20.3118 38.7353 17.5419 35.0236 15.4143Z" fill="#51BCD0"/>
</svg>
