<svg width="20" height="20" viewBox="0 0 20 20" fill="none" xmlns="http://www.w3.org/2000/svg">
<path d="M17.9329 17.0666L14.7329 13.8666C15.2662 13.2 15.6884 12.4666 15.9995 11.6666C16.3107 10.8666 16.4662 10.0222 16.4662 9.1333C16.4662 7.84441 16.1329 6.64441 15.4662 5.5333C14.7995 4.42219 13.9107 3.5333 12.7995 2.86663C11.6884 2.19997 10.4773 1.86663 9.16621 1.86663C7.8551 1.86663 6.64399 2.19997 5.53288 2.86663C4.42177 3.5333 3.53288 4.42219 2.86621 5.5333C2.19954 6.64441 1.86621 7.85552 1.86621 9.16663C1.86621 10.4777 2.19954 11.6889 2.86621 12.8C3.53288 13.9111 4.42177 14.8 5.53288 15.4666C6.64399 16.1333 7.86621 16.4666 9.19954 16.4666C10.044 16.4666 10.8662 16.3111 11.6662 16C12.4662 15.6889 13.1995 15.2666 13.8662 14.7333L17.0662 17.9333C17.1995 18.0666 17.344 18.1333 17.4995 18.1333C17.6551 18.1333 17.7995 18.0666 17.9329 17.9333C18.0662 17.8 18.1329 17.6555 18.1329 17.5C18.1329 17.3444 18.0662 17.2 17.9329 17.0666ZM9.19954 15.2C8.08843 15.2 7.06621 14.9333 6.13288 14.4C5.19954 13.8666 4.46621 13.1333 3.93288 12.2C3.39954 11.2666 3.13288 10.2555 3.13288 9.16663C3.13288 8.07774 3.39954 7.06663 3.93288 6.1333C4.46621 5.19997 5.19954 4.46663 6.13288 3.9333C7.06621 3.39997 8.07732 3.1333 9.16621 3.1333C10.2551 3.1333 11.2662 3.39997 12.1995 3.9333C13.1329 4.46663 13.8662 5.19997 14.3995 6.1333C14.9329 7.06663 15.1995 8.07774 15.1995 9.16663C15.1995 10.2555 14.9329 11.2666 14.3995 12.2C13.8662 13.1333 13.1329 13.8666 12.1995 14.4C11.2662 14.9333 10.2662 15.2 9.19954 15.2Z" fill="white"/>
</svg>
