<svg width="74" height="74" viewBox="0 0 74 74" fill="none" xmlns="http://www.w3.org/2000/svg">
<path fill-rule="evenodd" clip-rule="evenodd" d="M25.2869 2.48841L64.6681 13.0406C67.8974 13.9059 68.9786 14.5559 69.9899 15.5039C71.0012 16.452 71.6798 17.6264 71.9946 18.9761C72.3094 20.3258 72.3323 21.5873 71.467 24.8166L60.9148 64.1978C60.0495 67.4271 59.3995 68.5083 58.4515 69.5196C57.5034 70.5309 56.329 71.2095 54.9793 71.5243C53.6296 71.8391 52.3681 71.862 49.1388 70.9967L9.75759 60.4445C6.52828 59.5793 5.44705 58.9293 4.43575 57.9812C3.42446 57.0332 2.74706 55.859 2.43167 54.5092C2.11628 53.1593 2.09382 51.8986 2.95912 48.6692L13.5113 9.28805C14.3766 6.05873 15.0266 4.97751 15.9746 3.96621C16.9227 2.95492 18.0971 2.27636 19.447 1.96097C20.7968 1.64558 22.0576 1.62312 25.2869 2.48841Z" fill="#51BCD0"/>
<path d="M38.818 53.2969H33.1406C32.9624 53.2969 32.7915 53.2261 32.6655 53.1001C32.5395 52.9741 32.4688 52.8032 32.4688 52.625V41.875C32.4688 41.6968 32.5395 41.5259 32.6655 41.3999C32.7915 41.2739 32.9624 41.2031 33.1406 41.2031H38.818C38.9962 41.2031 39.1671 41.2739 39.2931 41.3999C39.4191 41.5259 39.4898 41.6968 39.4898 41.875C39.4898 42.0532 39.4191 42.2241 39.2931 42.3501C39.1671 42.4761 38.9962 42.5469 38.818 42.5469H33.8125V51.9531H38.818C38.9962 51.9531 39.1671 52.0239 39.2931 52.1499C39.4191 52.2759 39.4898 52.4468 39.4898 52.625C39.4898 52.8032 39.4191 52.9741 39.2931 53.1001C39.1671 53.2261 38.9962 53.2969 38.818 53.2969Z" fill="white"/>
<path d="M54.6402 53.2969H48.9629C48.7847 53.2969 48.6138 53.2261 48.4878 53.1001C48.3618 52.9741 48.291 52.8032 48.291 52.625C48.291 52.4468 48.3618 52.2759 48.4878 52.1499C48.6138 52.0239 48.7847 51.9531 48.9629 51.9531H53.9684V42.5469H48.9629C48.7847 42.5469 48.6138 42.4761 48.4878 42.3501C48.3618 42.2241 48.291 42.0532 48.291 41.875C48.291 41.6968 48.3618 41.5259 48.4878 41.3999C48.6138 41.2739 48.7847 41.2031 48.9629 41.2031H54.6402C54.8184 41.2031 54.9893 41.2739 55.1153 41.3999C55.2413 41.5259 55.3121 41.6968 55.3121 41.875V52.625C55.3121 52.8032 55.2413 52.9741 55.1153 53.1001C54.9893 53.2261 54.8184 53.2969 54.6402 53.2969Z" fill="white"/>
<path d="M43.8906 55.3125C42.296 55.3125 40.7372 54.8396 39.4113 53.9537C38.0855 53.0678 37.0521 51.8086 36.4418 50.3354C35.8316 48.8622 35.672 47.2411 35.983 45.6771C36.2941 44.1131 37.062 42.6765 38.1896 41.549C39.3171 40.4214 40.7537 39.6535 42.3177 39.3424C43.8817 39.0313 45.5028 39.191 46.976 39.8012C48.4492 40.4115 49.7084 41.4448 50.5944 42.7707C51.4803 44.0966 51.9531 45.6554 51.9531 47.25C51.9531 49.3883 51.1037 51.439 49.5917 52.9511C48.0797 54.4631 46.0289 55.3125 43.8906 55.3125ZM43.8906 40.5313C42.5618 40.5313 41.2628 40.9253 40.1579 41.6636C39.053 42.4018 38.1918 43.4512 37.6833 44.6788C37.1748 45.9065 37.0417 47.2575 37.301 48.5608C37.5602 49.8641 38.2001 51.0612 39.1398 52.0009C40.0794 52.9405 41.2766 53.5804 42.5799 53.8397C43.8832 54.0989 45.2341 53.9658 46.4618 53.4573C47.6895 52.9488 48.7388 52.0876 49.4771 50.9827C50.2153 49.8778 50.6094 48.5788 50.6094 47.25C50.6094 46.3677 50.4356 45.494 50.0979 44.6788C49.7603 43.8637 49.2654 43.123 48.6415 42.4991C48.0176 41.8752 47.2769 41.3803 46.4618 41.0427C45.6466 40.705 44.7729 40.5313 43.8906 40.5313Z" fill="white"/>
<path d="M43.8906 52.625C42.8276 52.625 41.7884 52.3098 40.9044 51.7192C40.0205 51.1285 39.3316 50.2891 38.9248 49.3069C38.518 48.3248 38.4115 47.244 38.6189 46.2014C38.8263 45.1587 39.3382 44.201 40.0899 43.4493C40.8416 42.6976 41.7994 42.1857 42.842 41.9783C43.8847 41.7709 44.9654 41.8773 45.9476 42.2841C46.9297 42.691 47.7692 43.3799 48.3598 44.2638C48.9504 45.1477 49.2656 46.1869 49.2656 47.25C49.2656 48.6755 48.6993 50.0427 47.6913 51.0507C46.6833 52.0587 45.3162 52.625 43.8906 52.625ZM43.8906 43.2188C43.0933 43.2188 42.3139 43.4552 41.651 43.8981C40.9881 44.3411 40.4714 44.9707 40.1662 45.7073C39.8611 46.4439 39.7813 47.2545 39.9368 48.0365C40.0924 48.8184 40.4763 49.5367 41.0401 50.1005C41.6039 50.6643 42.3222 51.0482 43.1042 51.2038C43.8862 51.3593 44.6967 51.2795 45.4333 50.9744C46.1699 50.6693 46.7995 50.1526 47.2425 49.4896C47.6854 48.8267 47.9219 48.0473 47.9219 47.25C47.9219 46.1808 47.4972 45.1555 46.7412 44.3995C45.9851 43.6435 44.9598 43.2188 43.8906 43.2188Z" fill="white"/>
<path d="M35.1562 42.5469C34.9781 42.5469 34.8072 42.4761 34.6812 42.3501C34.5552 42.2241 34.4844 42.0532 34.4844 41.875V40.5312C34.4844 40.3531 34.5552 40.1822 34.6812 40.0562C34.8072 39.9302 34.9781 39.8594 35.1562 39.8594C35.3344 39.8594 35.5053 39.9302 35.6313 40.0562C35.7573 40.1822 35.8281 40.3531 35.8281 40.5312V41.875C35.8281 42.0532 35.7573 42.2241 35.6313 42.3501C35.5053 42.4761 35.3344 42.5469 35.1562 42.5469Z" fill="white"/>
<path d="M29.6267 52.0205C28.9756 52.0175 28.3394 51.8255 27.7955 51.4676C27.2515 51.1098 26.8233 50.6016 26.5629 50.0048L18.0637 31.0177C17.8831 30.6149 17.7836 30.1805 17.7709 29.7393C17.7583 29.2981 17.8327 28.8587 17.9899 28.4462C18.1472 28.0338 18.3841 27.6564 18.6873 27.3356C18.9905 27.0148 19.3539 26.7568 19.7568 26.5766L34.229 20.1131C34.3101 20.0704 34.3992 20.0447 34.4906 20.0376C34.5821 20.0306 34.674 20.0423 34.7607 20.0722C34.8475 20.102 34.9272 20.1493 34.9949 20.2111C35.0627 20.2729 35.1171 20.3479 35.1548 20.4315C35.1925 20.5152 35.2126 20.6056 35.214 20.6973C35.2154 20.789 35.198 20.88 35.1629 20.9648C35.1278 21.0495 35.0757 21.1262 35.0098 21.19C34.944 21.2538 34.8657 21.3035 34.7799 21.3359L20.3077 27.7994C20.0627 27.9069 19.8415 28.0622 19.6571 28.2562C19.4727 28.4501 19.3288 28.6789 19.2337 28.929C19.1387 29.1792 19.0944 29.4458 19.1034 29.7133C19.1125 29.9807 19.1747 30.2437 19.2865 30.4869L27.7656 49.4808C27.9627 49.945 28.3267 50.3184 28.7856 50.5274C29.2446 50.7363 29.7652 50.7656 30.2448 50.6095C30.3296 50.5783 30.4198 50.5645 30.51 50.569C30.6002 50.5734 30.6887 50.596 30.77 50.6354C30.8513 50.6748 30.9238 50.7302 30.9832 50.7983C31.0426 50.8663 31.0877 50.9457 31.1157 51.0316C31.1437 51.1175 31.1541 51.2081 31.1463 51.2981C31.1385 51.3882 31.1126 51.4757 31.0702 51.5554C31.0278 51.6352 30.9697 51.7056 30.8995 51.7624C30.8292 51.8192 30.7482 51.8613 30.6613 51.8861C30.3259 51.9862 29.9765 52.0315 29.6267 52.0205Z" fill="white"/>
<path d="M29.9227 31.6356C29.7606 31.6374 29.6034 31.5806 29.4799 31.4756C29.3565 31.3707 29.2751 31.2247 29.2508 31.0645C29.1379 30.507 29.122 29.9342 29.2038 29.3713C29.314 28.6152 29.5936 27.8938 30.0218 27.2609C30.4499 26.628 31.0155 26.1 31.6763 25.7163C31.7793 25.66 31.8947 25.63 32.0122 25.629C32.1665 25.6266 32.317 25.6774 32.4383 25.7728C32.5596 25.8683 32.6443 26.0026 32.6782 26.1532C32.7121 26.3038 32.6931 26.4615 32.6244 26.5997C32.5558 26.7379 32.4416 26.8483 32.3011 26.9123C31.8321 27.1916 31.4309 27.5715 31.1265 28.0246C30.8221 28.4777 30.622 28.9928 30.5408 29.5326C30.5377 29.5458 30.5377 29.5596 30.5408 29.5729C30.4803 29.9975 30.494 30.4295 30.5811 30.8495C30.5844 30.8964 30.5844 30.9436 30.5811 30.9906C30.5743 31.1617 30.5023 31.3239 30.3799 31.4438C30.2575 31.5637 30.094 31.6323 29.9227 31.6356Z" fill="white"/>
<path d="M26.1262 39.8592C25.997 39.8589 25.8705 39.8214 25.7621 39.751C25.6537 39.6807 25.5678 39.5806 25.5148 39.4628L22.4981 32.744C22.4639 32.6621 22.4463 32.5741 22.4463 32.4853C22.4463 32.3965 22.4639 32.3086 22.4981 32.2267C22.5616 32.0625 22.6871 31.9298 22.8475 31.8571L29.5998 28.8404C29.7449 28.7758 29.9081 28.7646 30.0606 28.8089C30.2131 28.8531 30.345 28.95 30.4329 29.0823C30.5121 29.1972 30.5564 29.3325 30.5606 29.472C30.562 29.636 30.5033 29.7949 30.3956 29.9187C30.2879 30.0424 30.1387 30.1225 29.976 30.1439L24.0098 32.8314L26.5629 38.5423C26.7246 38.6073 26.8547 38.7326 26.9257 38.8917C26.9955 39.0548 26.9979 39.2389 26.9325 39.4038C26.867 39.5686 26.739 39.701 26.5764 39.7718L26.4084 39.8524C26.3156 39.8728 26.2198 39.8751 26.1262 39.8592Z" fill="white"/>
<path d="M30.4532 44.4616C30.3581 44.4612 30.2642 44.4406 30.1777 44.4012L27.4163 43.1649C26.6335 42.8132 26.0149 42.1752 25.6875 41.3819C25.3602 40.5885 25.3489 39.6999 25.656 38.8985C25.6663 38.8489 25.6845 38.8013 25.7098 38.7574L29.2909 30.7419C29.2891 30.7241 29.2891 30.7061 29.2909 30.6882L31.3871 25.9851L31.4274 25.9044L34.2224 19.703C34.5866 18.891 35.258 18.2567 36.0894 17.9392C36.9208 17.6218 37.8441 17.6472 38.6568 18.0099L53.3776 24.5876C53.7805 24.7679 54.1439 25.0258 54.4471 25.3466C54.7503 25.6674 54.9872 26.0448 55.1445 26.4572C55.3017 26.8697 55.3761 27.3091 55.3635 27.7503C55.3508 28.1915 55.2513 28.6259 55.0707 29.0287L50.4348 39.3957C50.4023 39.4815 50.3526 39.5597 50.2888 39.6256C50.225 39.6914 50.1483 39.7435 50.0636 39.7787C49.9789 39.8138 49.8878 39.8312 49.7961 39.8298C49.7044 39.8284 49.614 39.8082 49.5304 39.7706C49.4467 39.7329 49.3717 39.6785 49.3099 39.6107C49.2481 39.5429 49.2008 39.4632 49.171 39.3765C49.1412 39.2898 49.1294 39.1978 49.1365 39.1064C49.1435 39.0149 49.1692 38.9259 49.212 38.8448L53.8479 28.4777C53.9597 28.2346 54.0219 27.9716 54.031 27.7041C54.04 27.4366 53.9957 27.17 53.9007 26.9199C53.8056 26.6697 53.6617 26.441 53.4773 26.247C53.2929 26.0531 53.0717 25.8978 52.8266 25.7902L38.1059 19.2394C37.6185 19.023 37.0653 19.0085 36.5673 19.1991C36.3196 19.2936 36.0931 19.436 35.9005 19.6182C35.708 19.8003 35.5533 20.0187 35.4452 20.2607L32.6368 26.5494L32.5965 26.6301L30.5809 31.1921C30.5826 31.21 30.5826 31.228 30.5809 31.2458L26.993 39.3083C26.9922 39.2949 26.9922 39.2815 26.993 39.268C26.985 39.3092 26.9738 39.3496 26.9595 39.389C26.7739 39.8631 26.7747 40.39 26.9616 40.8636C27.1486 41.3372 27.5079 41.7225 27.9673 41.9421L30.7287 43.1784C30.8681 43.2419 30.9816 43.3511 31.0504 43.4879C31.1192 43.6248 31.1392 43.781 31.107 43.9308C31.0749 44.0805 30.9925 44.2148 30.8736 44.3114C30.7547 44.4079 30.6064 44.4609 30.4532 44.4616Z" fill="white"/>
<path d="M41.2035 38.2198C41.1084 38.2193 41.0145 38.1987 40.928 38.1593L35.2238 35.6062C35.1227 35.557 35.0355 35.4832 34.9703 35.3916C34.905 35.3 34.8638 35.1935 34.8505 35.0818C34.8371 34.9701 34.852 34.8569 34.8937 34.7525C34.9355 34.6481 35.0028 34.5558 35.0894 34.4841L38.6101 31.931L38.6705 31.8907L41.6133 29.7541C41.7107 29.6868 41.8241 29.6463 41.942 29.6369C42.06 29.6275 42.1784 29.6494 42.2852 29.7004C42.396 29.7562 42.4892 29.8416 42.5544 29.9472C42.6196 30.0527 42.6544 30.1743 42.6547 30.2983L43.4005 37.1716C43.4093 37.2599 43.4007 37.349 43.3751 37.4339C43.3495 37.5188 43.3074 37.5978 43.2512 37.6664C43.1951 37.735 43.126 37.7919 43.0478 37.8338C42.9697 37.8758 42.8841 37.9019 42.7958 37.9107C42.7076 37.9195 42.6185 37.9109 42.5336 37.8853C42.4487 37.8596 42.3697 37.8176 42.3011 37.7614C42.2324 37.7053 42.1755 37.6361 42.1336 37.558C42.0917 37.4799 42.0656 37.3942 42.0568 37.306L41.4521 31.4943L39.3961 32.9858L39.329 33.0262L36.8094 34.8537L41.4521 36.9365C41.5897 36.9988 41.7023 37.1057 41.7717 37.24C41.8411 37.3742 41.8632 37.5279 41.8345 37.6763C41.8057 37.8246 41.7278 37.9589 41.6133 38.0576C41.4988 38.1562 41.3545 38.2133 41.2035 38.2198Z" fill="white"/>
<path d="M38.9189 33.1407C38.224 33.1368 37.5375 32.9881 36.9033 32.704C36.1024 32.347 35.4086 31.7872 34.8904 31.0799C34.3722 30.3726 34.0474 29.5424 33.9483 28.6712C33.8492 27.8 33.9791 26.918 34.3252 26.1124C34.6713 25.3068 35.2217 24.6055 35.9218 24.0777C36.622 23.5499 37.4477 23.2139 38.3175 23.103C39.1873 22.9921 40.0709 23.11 40.8811 23.4451C41.6914 23.7803 42.4001 24.321 42.9374 25.0139C43.4746 25.7069 43.8218 26.528 43.9445 27.3962C44.0864 28.3365 43.9534 29.2978 43.5616 30.1643C43.3289 30.6926 43.0035 31.175 42.6008 31.5887C42.5419 31.66 42.469 31.7183 42.3866 31.7602C42.3042 31.802 42.214 31.8264 42.1218 31.8318C42.0295 31.8372 41.9371 31.8235 41.8504 31.7915C41.7636 31.7596 41.6844 31.7101 41.6177 31.6461C41.5509 31.5822 41.4981 31.5051 41.4625 31.4199C41.4269 31.3346 41.4093 31.2428 41.4108 31.1504C41.4122 31.058 41.4327 30.9669 41.471 30.8827C41.5093 30.7986 41.5645 30.7233 41.6333 30.6615C41.915 30.3527 42.1422 29.9983 42.3052 29.6134C42.588 28.9817 42.6837 28.2821 42.5806 27.5977C42.4913 26.9606 42.2371 26.3578 41.8433 25.8491C41.4495 25.3403 40.9298 24.9432 40.3354 24.697C39.741 24.4507 39.0926 24.364 38.4544 24.4452C37.8162 24.5265 37.2103 24.7729 36.6966 25.1602C36.1828 25.5475 35.7791 26.0622 35.5254 26.6534C35.2716 27.2446 35.1766 27.8918 35.2498 28.531C35.3229 29.1702 35.5617 29.7792 35.9424 30.2978C36.3231 30.8164 36.8327 31.2267 37.4206 31.4879C37.9113 31.7119 38.4469 31.82 38.9861 31.8037C39.1643 31.8037 39.3352 31.8745 39.4612 32.0005C39.5872 32.1265 39.658 32.2974 39.658 32.4755C39.658 32.6537 39.5872 32.8246 39.4612 32.9506C39.3352 33.0766 39.1643 33.1474 38.9861 33.1474L38.9189 33.1407Z" fill="white"/>
<path d="M42.0098 30.9434C41.8316 30.9434 41.6607 30.8726 41.5347 30.7466C41.4087 30.6206 41.3379 30.4497 41.3379 30.2715C41.3379 30.1386 41.3773 30.0087 41.4511 29.8982C41.5249 29.7877 41.6299 29.7016 41.7527 29.6508C41.8754 29.5999 42.0105 29.5866 42.1408 29.6125C42.2712 29.6384 42.3909 29.7024 42.4849 29.7964C42.5788 29.8904 42.6428 30.0101 42.6687 30.1404C42.6947 30.2707 42.6813 30.4058 42.6305 30.5286C42.5796 30.6514 42.4935 30.7563 42.383 30.8301C42.2725 30.904 42.1426 30.9434 42.0098 30.9434Z" fill="white"/>
<path d="M47.008 37.8436C46.9129 37.8431 46.819 37.8225 46.7325 37.7831L42.2444 35.7675C42.0931 35.6878 41.9779 35.5533 41.9223 35.3916C41.8666 35.2299 41.8748 35.053 41.945 34.8971C42.0153 34.7412 42.1424 34.6179 42.3004 34.5524C42.4583 34.4869 42.6354 34.4842 42.7953 34.5447L46.672 36.2714L49.1378 30.7486L43.091 28.0611L42.9297 28.0006C42.7737 27.9213 42.6549 27.7842 42.5984 27.6186C42.542 27.453 42.5523 27.2718 42.6274 27.1137C42.7055 26.96 42.8397 26.8421 43.0023 26.7846C43.1649 26.727 43.3434 26.7342 43.5008 26.8047L50.2195 29.8214C50.3799 29.894 50.5054 30.0267 50.5689 30.1909C50.6031 30.2729 50.6207 30.3608 50.6207 30.4496C50.6207 30.5384 50.6031 30.6263 50.5689 30.7083L47.5522 37.427C47.5072 37.5389 47.433 37.6366 47.3372 37.7099C47.2414 37.7832 47.1277 37.8294 47.008 37.8436Z" fill="white"/>
</svg>
