<svg width="74" height="74" viewBox="0 0 74 74" fill="none" xmlns="http://www.w3.org/2000/svg">
<path fill-rule="evenodd" clip-rule="evenodd" d="M9.28689 13.5116L48.6681 2.95943C51.8974 2.09413 53.1588 2.11644 54.5086 2.43182C55.8584 2.74721 57.0333 3.42504 57.9808 4.43649C58.9283 5.44794 59.5788 6.52901 60.4441 9.75833L70.9963 49.1395C71.8616 52.3688 71.8393 53.6302 71.5239 54.98C71.2085 56.3299 70.5307 57.5048 69.5192 58.4522C68.5078 59.3997 67.4267 60.0503 64.1974 60.9156L24.8162 71.4677C21.5869 72.333 20.3255 72.3107 18.9757 71.9953C17.6258 71.6799 16.4521 71.0018 15.5041 69.9905C14.556 68.9792 13.9062 67.8986 13.0409 64.6692L2.48873 25.288C1.62343 22.0587 1.64573 20.7974 1.96112 19.4475C2.27651 18.0977 2.95434 16.9228 3.96563 15.9748C4.97693 15.0267 6.05757 14.3769 9.28689 13.5116Z" fill="#51BCD0"/>
<path fill-rule="evenodd" clip-rule="evenodd" d="M39.3445 30.6304L43.1146 32.3073C43.1601 32.328 43.1997 32.3596 43.2299 32.3994C43.26 32.4391 43.2798 32.4857 43.2874 32.5349C43.295 32.5842 43.2902 32.6346 43.2734 32.6816C43.2567 32.7286 43.2285 32.7708 43.1913 32.8043L40.103 35.5516C40.0418 35.6043 39.9734 35.6482 39.8999 35.6818L39.8245 35.7118C39.6174 35.7879 39.3889 35.7813 39.187 35.6932C38.9042 35.5697 38.7218 35.3033 38.7082 35.0052L38.7089 34.9231L38.9226 30.8943C38.9254 30.8458 38.94 30.7987 38.9651 30.757C38.9902 30.7153 39.025 30.6802 39.0666 30.6548C39.1081 30.6294 39.1553 30.6143 39.2039 30.611C39.2525 30.6076 39.3012 30.616 39.3459 30.6355L39.3445 30.6304ZM45.1102 16.5459C45.3949 15.9855 45.8762 15.5486 46.4626 15.3185C47.049 15.0884 47.6994 15.0811 48.2899 15.298L48.4148 15.3476L49.156 15.6867C49.4507 15.8207 49.7157 16.0117 49.9357 16.2487C50.1556 16.4856 50.3262 16.7637 50.4375 17.0669C50.6444 17.6338 50.6322 18.2575 50.4033 18.8168L50.3467 18.9444L44.5013 31.2435C44.3602 31.541 44.0051 31.6698 43.7059 31.533L39.5717 29.6469C39.2698 29.509 39.1331 29.1546 39.2772 28.8521L45.1102 16.5459Z" fill="white"/>
<path d="M37.4146 44.3492L33.3069 45.4499M33.7502 30.6738L29.6426 31.7744" stroke="white" stroke-width="1.46208" stroke-linecap="round" stroke-linejoin="round"/>
<path d="M31.8945 32.1899L35.1236 44.232" stroke="white" stroke-width="1.46208" stroke-linecap="round" stroke-linejoin="round"/>
<path d="M18.2372 25.9713C17.9473 26.049 17.7673 26.3324 17.8118 26.6228L17.8248 26.6847L25.5464 55.5018C25.624 55.7916 25.9075 55.9716 26.1979 55.9271L26.2597 55.9141L55.0779 48.1923C55.3677 48.1146 55.5478 47.8312 55.5032 47.5408L55.4902 47.4789L50.4862 28.8038C50.4031 28.4935 50.0833 28.3089 49.773 28.392C49.4831 28.4697 49.3031 28.7532 49.3476 29.0435L49.3606 29.1054L54.2136 47.2169L26.5205 54.6373L19.1004 26.9452L38.331 21.7924C38.6208 21.7147 38.8009 21.4312 38.7563 21.1409L38.7433 21.079C38.6657 20.7892 38.3822 20.6091 38.0918 20.6537L38.03 20.6667L18.2369 25.9702L18.2372 25.9713Z" fill="white"/>
<path d="M21.5987 25.555C21.1029 23.7045 19.2009 22.6064 17.3505 23.1022C15.5001 23.5981 14.4019 25.5001 14.8978 27.3505C15.3936 29.2009 17.2956 30.299 19.146 29.8032C20.9964 29.3073 22.0945 27.4054 21.5987 25.555Z" fill="white"/>
<path d="M29.3789 54.5921C28.8831 52.7417 26.9811 51.6435 25.1307 52.1394C23.2803 52.6352 22.1822 54.5372 22.678 56.3876C23.1738 58.238 25.0758 59.3361 26.9262 58.8403C28.7766 58.3445 29.8748 56.4425 29.3789 54.5921Z" fill="white"/>
<path d="M58.4161 46.8118C57.9202 44.9614 56.0182 43.8633 54.1678 44.3591C52.3174 44.8549 51.2193 46.7569 51.7151 48.6073C52.211 50.4577 54.1129 51.5558 55.9633 51.06C57.8138 50.5642 58.9119 48.6622 58.4161 46.8118Z" fill="white"/>
</svg>
