<svg width="82" height="82" viewBox="0 0 82 82" fill="none" xmlns="http://www.w3.org/2000/svg">
<path fill-rule="evenodd" clip-rule="evenodd" d="M8.3264 25.1928L43.6346 4.80755C46.5299 3.13593 47.7541 2.83101 49.1396 2.78629C50.525 2.74157 51.8353 3.09222 53.0123 3.82398C54.1893 4.55574 55.0975 5.43159 56.7691 8.32692L77.1543 43.6351C78.8259 46.5305 79.1308 47.7546 79.1755 49.1401C79.2203 50.5256 78.8696 51.8358 78.1378 53.0128C77.4061 54.1898 76.5302 55.098 73.6349 56.7696L38.3267 77.1548C35.4314 78.8264 34.2072 79.1313 32.8218 79.1761C31.4363 79.2208 30.127 78.8695 28.9495 78.1381C27.7721 77.4066 26.8647 76.531 25.1931 73.6356L4.80785 38.3274C3.13623 35.4321 2.83131 34.208 2.78659 32.8225C2.74187 31.437 3.09251 30.1267 3.82398 28.9492C4.55544 27.7718 5.43107 26.8644 8.3264 25.1928Z" fill="#51BCD0"/>
<g clip-path="url(#clip0_631_31636)">
<path d="M37.2556 50.1062L28.7757 55.002C27.7581 55.5895 27.4714 56.6595 28.0589 57.6771C28.6464 58.6947 29.7165 58.9814 30.7341 58.3939L37.5179 54.4773L41.4346 61.2611C42.0221 62.2787 43.0921 62.5654 44.1097 61.9779C45.1273 61.3904 45.414 60.3204 44.8265 59.3028L39.9307 50.823C39.3432 49.8054 38.2731 49.5187 37.2556 50.1062ZM24.5264 28.0586C23.5088 28.6461 23.2221 29.7161 23.8096 30.7337L27.7263 37.5176L20.9424 41.4343C19.9248 42.0218 19.6381 43.0918 20.2256 44.1094C20.8131 45.127 21.8831 45.4137 22.9007 44.8262L31.3806 39.9304C32.3981 39.3429 32.6848 38.2728 32.0974 37.2552L27.2015 28.7754C26.614 27.7578 25.544 27.4711 24.5264 28.0586ZM44.9483 32.097L53.4281 27.2012C54.4457 26.6137 54.7324 25.5436 54.1449 24.5261C53.5574 23.5085 52.4874 23.2218 51.4698 23.8093L44.6859 27.7259L40.7692 20.9421C40.1817 19.9245 39.1117 19.6378 38.0941 20.2253C37.0765 20.8128 36.7898 21.8828 37.3773 22.9004L42.2731 31.3802C42.8606 32.3978 43.9307 32.6845 44.9483 32.097ZM59.3031 37.377L50.8233 42.2728C49.8057 42.8603 49.519 43.9304 50.1065 44.948L55.0023 53.4278C55.5898 54.4454 56.6599 54.7321 57.6774 54.1446C58.695 53.5571 58.9817 52.487 58.3942 51.4695L54.4776 44.6856L61.2614 40.7689C62.279 40.1814 62.5657 39.1114 61.9782 38.0938C61.3907 37.0762 60.3207 36.7895 59.3031 37.377Z" fill="white"/>
</g>
<defs>
<clipPath id="clip0_631_31636">
<rect width="47" height="47" fill="white" transform="translate(9 32.5) rotate(-30)"/>
</clipPath>
</defs>
</svg>
