<svg width="30" height="24" viewBox="0 0 30 24" fill="none" xmlns="http://www.w3.org/2000/svg">
<path d="M28.3659 22.531L27.9795 22.071L27.9819 22.0687L28.3659 22.531ZM29.3953 20.3474L29.9688 20.1707L29.9952 20.2588V20.3511L29.3953 20.3474ZM27.3916 13.8135L27.5464 13.2325L27.8667 13.3186L27.9651 13.6368L27.3916 13.8135ZM27.3928 10.1941L27.9663 10.3707L27.8691 10.6894L27.5476 10.7752L27.3928 10.1941ZM29.3953 3.65715L29.994 3.62058L30 3.72945L29.9688 3.83374L29.3953 3.65715ZM25.9866 0.606009L26.0178 1.20664L26.0022 1.20748H25.9866V0.606009ZM24.6513 0.852132L24.8648 1.41427L24.8636 1.41463L24.6513 0.852132ZM2.67558 9.1973L2.88794 9.75968L2.87474 9.76473L2.86155 9.76906L2.67558 9.1973ZM0.599905 12.0022L0 12.0153V12.0022V11.9892L0.599905 12.0022ZM2.67558 14.8072L2.86155 14.2355L2.87474 14.2398L2.88794 14.2449L2.67558 14.8072ZM24.6513 23.1524L24.8636 22.5899L24.8648 22.5901L24.6513 23.1524ZM20.6331 12L20.4783 12.5811C20.2156 12.5106 20.0332 12.2721 20.0332 11.9997C20.0332 11.7273 20.2156 11.489 20.4783 11.4189L20.6331 12ZM25.9866 22.797C26.7149 22.7989 27.4216 22.5415 27.9795 22.071L28.7522 22.991C27.9783 23.6449 26.9969 24.0024 25.9854 24L25.9866 22.797ZM27.9819 22.0687C28.2351 21.8578 28.4379 21.5942 28.5782 21.2963L29.6641 21.8102C29.4481 22.2665 29.1361 22.6703 28.7498 22.9932L27.9819 22.0687ZM28.5782 21.2963C28.7186 20.9983 28.793 20.6731 28.7954 20.3436L29.9952 20.3511C29.9916 20.8559 29.8788 21.3538 29.6641 21.8102L28.5782 21.2963ZM28.8218 20.5241L26.8181 13.9903L27.9651 13.6368L29.9688 20.1707L28.8218 20.5241ZM26.8193 10.0175L28.8218 3.48056L29.9688 3.83374L27.9663 10.3707L26.8193 10.0175ZM28.7966 3.69372C28.7534 2.99553 28.4378 2.34246 27.9171 1.87668L28.7162 0.979404C29.4733 1.65654 29.9316 2.60578 29.994 3.62058L28.7966 3.69372ZM27.9171 1.87668C27.3976 1.4109 26.7149 1.17007 26.0178 1.20664L25.9555 0.00525793C26.9681 -0.0477918 27.9603 0.302268 28.7162 0.979404L27.9171 1.87668ZM25.9866 1.20748C25.6027 1.20748 25.2224 1.27761 24.8648 1.41427L24.4377 0.289997C24.932 0.101375 25.4575 0.00453748 25.9866 0.00453748V1.20748ZM24.8636 1.41463L2.88794 9.75968L2.46321 8.63481L24.4389 0.289634L24.8636 1.41463ZM2.86155 9.76906C2.38642 9.92448 1.97129 10.2243 1.67374 10.6266L0.710291 9.90968C1.15662 9.30713 1.77811 8.85831 2.4896 8.62542L2.86155 9.76906ZM1.67374 10.6266C1.37619 11.029 1.21061 11.5143 1.19981 12.0153L0 11.9892C0.0155983 11.2391 0.263962 10.5124 0.710291 9.90968L1.67374 10.6266ZM1.19981 11.9892C1.21061 12.4902 1.37619 12.9755 1.67374 13.3779L0.710291 14.0948C0.263962 13.4922 0.0155983 12.7655 0 12.0153L1.19981 11.9892ZM1.67374 13.3779C1.97129 13.7803 2.38642 14.08 2.86155 14.2355L2.4896 15.3791C1.77811 15.1462 1.15662 14.6974 0.710291 14.0948L1.67374 13.3779ZM2.88794 14.2449L24.8636 22.5899L24.4389 23.7149L2.46321 15.3697L2.88794 14.2449ZM24.8648 22.5901C25.2224 22.7268 25.6027 22.7969 25.9866 22.797V24C25.4575 23.9999 24.932 23.9032 24.4377 23.7147L24.8648 22.5901ZM20.4783 11.4189L27.238 9.6128L27.5476 10.7752L20.7879 12.5812L20.4783 11.4189ZM20.7879 11.419L27.5464 13.2325L27.2356 14.3945L20.4783 12.5811L20.7879 11.419Z" fill="#51BCD0"/>
</svg>
