<svg width="37" height="37" viewBox="0 0 37 37" fill="none" xmlns="http://www.w3.org/2000/svg">
<path d="M18.5 11.8477V24.9727M12.875 14.6602L24.125 22.1602M12.875 22.1602L24.125 14.6602M1.625 5.28516C1.625 4.29059 2.02009 3.33677 2.72335 2.63351C3.42661 1.93024 4.38044 1.53516 5.375 1.53516H31.625C32.6196 1.53516 33.5734 1.93024 34.2766 2.63351C34.9799 3.33677 35.375 4.29059 35.375 5.28516V31.5352C35.375 32.5297 34.9799 33.4835 34.2766 34.1868C33.5734 34.8901 32.6196 35.2852 31.625 35.2852H5.375C4.38044 35.2852 3.42661 34.8901 2.72335 34.1868C2.02009 33.4835 1.625 32.5297 1.625 31.5352V5.28516Z" stroke="white" stroke-width="2" stroke-linecap="round" stroke-linejoin="round"/>
</svg>
