<svg width="33" height="37" viewBox="0 0 33 37" fill="none" xmlns="http://www.w3.org/2000/svg">
<path d="M1.5 7.16016C1.5 10.267 8.21625 12.7852 16.5 12.7852C24.7838 12.7852 31.5 10.267 31.5 7.16016M1.5 7.16016C1.5 4.05328 8.21625 1.53516 16.5 1.53516C24.7838 1.53516 31.5 4.05328 31.5 7.16016M1.5 7.16016V29.6602C1.5 32.767 8.21625 35.2852 16.5 35.2852C24.7838 35.2852 31.5 32.767 31.5 29.6602V7.16016M1.5 24.0352C2.23031 24.0505 2.95336 23.8878 3.6067 23.5611C4.26005 23.2345 4.82406 22.7537 5.25 22.1602C5.67594 21.5668 6.23995 21.086 6.8933 20.7593C7.54664 20.4326 8.26969 20.2699 9 20.2852C9.73031 20.2699 10.4534 20.4326 11.1067 20.7593C11.7601 21.086 12.3241 21.5668 12.75 22.1602C13.1759 22.7537 13.7399 23.2345 14.3933 23.5611C15.0466 23.8878 15.7697 24.0505 16.5 24.0352C17.2303 24.0505 17.9534 23.8878 18.6067 23.5611C19.2601 23.2345 19.8241 22.7537 20.25 22.1602C20.6759 21.5668 21.2399 21.086 21.8933 20.7593C22.5466 20.4326 23.2697 20.2699 24 20.2852C24.7303 20.2699 25.4534 20.4326 26.1067 20.7593C26.7601 21.086 27.3241 21.5668 27.75 22.1602C28.1759 22.7537 28.7399 23.2345 29.3933 23.5611C30.0466 23.8878 30.7697 24.0505 31.5 24.0352" stroke="white" stroke-width="2" stroke-linecap="round" stroke-linejoin="round"/>
</svg>
