<svg width="35" height="33" viewBox="0 0 35 33" fill="none" xmlns="http://www.w3.org/2000/svg">
<path d="M29.75 31.5352L26 27.7852V5.28516C26 3.18328 27.6481 1.53516 29.75 1.53516C31.8519 1.53516 33.5 3.18328 33.5 5.28516V27.7852L29.75 31.5352ZM29.75 31.5352H5.375C4.38044 31.5352 3.42661 31.1401 2.72335 30.4368C2.02009 29.7335 1.625 28.7797 1.625 27.7852C1.625 26.7906 2.02009 25.8368 2.72335 25.1335C3.42661 24.4302 4.38044 24.0352 5.375 24.0352H12.875C13.8696 24.0352 14.8234 23.6401 15.5266 22.9368C16.2299 22.2335 16.625 21.2797 16.625 20.2852C16.625 19.2906 16.2299 18.3368 15.5266 17.6335C14.8234 16.9302 13.8696 16.5352 12.875 16.5352H7.25M26 9.03516H33.5" stroke="white" stroke-width="2" stroke-linecap="round" stroke-linejoin="round"/>
</svg>
