<svg width="33" height="33" viewBox="0 0 33 33" fill="none" xmlns="http://www.w3.org/2000/svg">
<path d="M9 27.6602C9 26.6656 8.60491 25.7118 7.90165 25.0085C7.19839 24.3052 6.24456 23.9102 5.25 23.9102M9 27.6602C9 28.6547 8.60491 29.6085 7.90165 30.3118C7.19839 31.0151 6.24456 31.4102 5.25 31.4102C4.25544 31.4102 3.30161 31.0151 2.59835 30.3118C1.89509 29.6085 1.5 28.6547 1.5 27.6602C1.5 26.6656 1.89509 25.7118 2.59835 25.0085C3.30161 24.3052 4.25544 23.9102 5.25 23.9102M9 27.6602H24M5.25 23.9102V8.91016M27.75 23.9102C28.7446 23.9102 29.6984 24.3052 30.4016 25.0085C31.1049 25.7118 31.5 26.6656 31.5 27.6602C31.5 28.6547 31.1049 29.6085 30.4016 30.3118C29.6984 31.0151 28.7446 31.4102 27.75 31.4102C26.7554 31.4102 25.8016 31.0151 25.0984 30.3118C24.3951 29.6085 24 28.6547 24 27.6602M27.75 23.9102C26.7554 23.9102 25.8016 24.3052 25.0984 25.0085C24.3951 25.7118 24 26.6656 24 27.6602M27.75 23.9102V8.91016M24 5.16016C24 4.16559 24.3951 3.21177 25.0984 2.50851C25.8016 1.80524 26.7554 1.41016 27.75 1.41016C28.7446 1.41016 29.6984 1.80524 30.4016 2.50851C31.1049 3.21177 31.5 4.16559 31.5 5.16016C31.5 6.15472 31.1049 7.10855 30.4016 7.81181C29.6984 8.51507 28.7446 8.91016 27.75 8.91016M24 5.16016C24 6.15472 24.3951 7.10855 25.0984 7.81181C25.8016 8.51507 26.7554 8.91016 27.75 8.91016M24 5.16016H9M9 5.16016C9 4.16559 8.60491 3.21177 7.90165 2.50851C7.19839 1.80524 6.24456 1.41016 5.25 1.41016C4.25544 1.41016 3.30161 1.80524 2.59835 2.50851C1.89509 3.21177 1.5 4.16559 1.5 5.16016C1.5 6.15472 1.89509 7.10855 2.59835 7.81181C3.30161 8.51507 4.25544 8.91016 5.25 8.91016M9 5.16016C9 6.15472 8.60491 7.10855 7.90165 7.81181C7.19839 8.51507 6.24456 8.91016 5.25 8.91016" stroke="white" stroke-width="2" stroke-linecap="round" stroke-linejoin="round"/>
</svg>
