<svg width="37" height="37" viewBox="0 0 37 37" fill="none" xmlns="http://www.w3.org/2000/svg">
<path d="M35.375 16.5352V10.9102C35.375 9.91559 34.9799 8.96177 34.2766 8.25851C33.5734 7.55524 32.6196 7.16016 31.625 7.16016H20.375M20.375 7.16016L26 12.7852M20.375 7.16016L26 1.53516M1.625 20.2852V25.9102C1.625 26.9047 2.02009 27.8585 2.72335 28.5618C3.42661 29.2651 4.38044 29.6602 5.375 29.6602H16.625M16.625 29.6602L11 24.0352M16.625 29.6602L11 35.2852M1.625 7.16016C1.625 8.652 2.21763 10.0827 3.27252 11.1376C4.32742 12.1925 5.75816 12.7852 7.25 12.7852C8.74184 12.7852 10.1726 12.1925 11.2275 11.1376C12.2824 10.0827 12.875 8.652 12.875 7.16016C12.875 5.66831 12.2824 4.23757 11.2275 3.18268C10.1726 2.12779 8.74184 1.53516 7.25 1.53516C5.75816 1.53516 4.32742 2.12779 3.27252 3.18268C2.21763 4.23757 1.625 5.66831 1.625 7.16016ZM24.125 29.6602C24.125 31.152 24.7176 32.5827 25.7725 33.6376C26.8274 34.6925 28.2582 35.2852 29.75 35.2852C31.2418 35.2852 32.6726 34.6925 33.7275 33.6376C34.7824 32.5827 35.375 31.152 35.375 29.6602C35.375 28.1683 34.7824 26.7376 33.7275 25.6827C32.6726 24.6278 31.2418 24.0352 29.75 24.0352C28.2582 24.0352 26.8274 24.6278 25.7725 25.6827C24.7176 26.7376 24.125 28.1683 24.125 29.6602Z" stroke="white" stroke-width="2" stroke-linecap="round" stroke-linejoin="round"/>
</svg>
