<svg width="30" height="30" viewBox="0 0 30 30" fill="none" xmlns="http://www.w3.org/2000/svg">
<path d="M25.9525 25.5144C25.9525 25.6306 25.9063 25.742 25.8241 25.8241C25.742 25.9063 25.6306 25.9525 25.5144 25.9525H15.4385V28.581H25.5144C26.3277 28.581 27.1077 28.2579 27.6828 27.6828C28.2579 27.1077 28.581 26.3277 28.581 25.5144V15.4385H25.9525V25.5144Z" fill="white"/>
<path d="M4.04842 4.4865C4.04842 4.37031 4.09457 4.25889 4.17673 4.17673C4.25889 4.09457 4.37031 4.04842 4.4865 4.04842H14.5624V1.41992H4.4865C3.67319 1.41992 2.8932 1.74301 2.3181 2.3181C1.74301 2.8932 1.41992 3.67319 1.41992 4.4865V14.5624H4.04842V4.4865Z" fill="white"/>
<path d="M1.85747 30.0006L8.42871 23.4293V28.5812H11.0572V20.2576C11.0572 19.909 10.9187 19.5748 10.6723 19.3283C10.4258 19.0818 10.0915 18.9434 9.74296 18.9434H1.41939V21.5719H6.57124L0 28.1431L1.85747 30.0006Z" fill="white"/>
<path d="M28.1431 0L21.5719 6.57124V1.41939H18.9434V9.74296C18.9434 10.0915 19.0818 10.4258 19.3283 10.6723C19.5748 10.9187 19.909 11.0572 20.2576 11.0572H28.5812V8.42871H23.4293L30.0006 1.85747L28.1431 0Z" fill="white"/>
<path d="M14.9998 16.314C15.7256 16.314 16.314 15.7256 16.314 14.9998C16.314 14.274 15.7256 13.6855 14.9998 13.6855C14.274 13.6855 13.6855 14.274 13.6855 14.9998C13.6855 15.7256 14.274 16.314 14.9998 16.314Z" fill="white"/>
</svg>
