<svg width="29" height="30" viewBox="0 0 29 30" fill="none" xmlns="http://www.w3.org/2000/svg">
<path d="M22.8 6.51429C20.2562 3.97046 18.8295 2.54415 16.2857 0H3.25714C1.45822 0 0 1.45822 0 3.25714V26.0571C0 27.8561 1.45822 29.3143 3.25714 29.3143H19.5429C21.3418 29.3143 22.8 27.8561 22.8 26.0571V24.4286H28.5V11.4H22.8V6.51429ZM15.4714 2.64057L20.1594 7.32857H16.2857C15.8369 7.32857 15.4714 6.96312 15.4714 6.51429V2.64057ZM20.3571 26.0571C20.3571 26.506 19.9917 26.8714 19.5429 26.8714H3.25714C2.80831 26.8714 2.44286 26.506 2.44286 26.0571V3.25714C2.44286 2.80798 2.80831 2.44286 3.25714 2.44286H13.0286V6.51429C13.0286 8.31321 14.4868 9.77143 16.2857 9.77143H20.3571V11.4H5.7V24.4286H20.3571V26.0571ZM26.8714 13.0286V22.8H7.32857V13.0286H26.8714Z" fill="white"/>
<path d="M10.5856 19.5429H11.3999C12.747 19.5429 13.8427 18.4472 13.8427 17.1001C13.8427 15.7529 12.747 14.6572 11.3999 14.6572H8.95703V21.1715H10.5856V19.5429ZM10.5856 16.2858H11.3999C11.849 16.2858 12.2142 16.6512 12.2142 17.1001C12.2142 17.5489 11.849 17.9144 11.3999 17.9144H10.5856V16.2858Z" fill="white"/>
<path d="M21.986 19.5429H24.4289V17.9144H21.986V16.2858H25.2431V14.6572H20.3574V21.1715H21.986V19.5429Z" fill="white"/>
<path d="M19.5429 18.7287V17.1001C19.5429 15.7529 18.4472 14.6572 17.1001 14.6572H14.6572V21.1715H17.1001C18.4472 21.1715 19.5429 20.0758 19.5429 18.7287ZM16.2858 16.2858H17.1001C17.5492 16.2858 17.9144 16.6512 17.9144 17.1001V18.7287C17.9144 19.1775 17.5492 19.5429 17.1001 19.5429H16.2858V16.2858Z" fill="white"/>
</svg>
