<svg width="24" height="31" viewBox="0 0 24 31" fill="none" xmlns="http://www.w3.org/2000/svg">
<path d="M21.66 19.845C21.12 19.845 20.6804 20.2935 20.6804 20.8445V28.9872H8.63261V23.8157C8.63261 23.5496 8.52975 23.2959 8.34608 23.1085C8.16241 22.9211 7.91262 22.8162 7.65303 22.8162H2.5849V20.8445C2.5849 20.2935 2.14532 19.845 1.60531 19.845C1.06408 19.845 0.625724 20.2935 0.625724 20.8445V23.802C0.622051 24.0719 0.726131 24.3305 0.912253 24.5217C7.391 31.1325 6.97346 30.7103 7.03208 30.7589C7.42024 31.0837 6.63657 30.9863 21.6597 30.9863C21.9205 30.9863 22.1691 30.8813 22.3528 30.6939C22.5364 30.5065 22.6393 30.2516 22.6393 29.9868V20.8446C22.6393 20.5797 22.5364 20.326 22.3528 20.1386C22.1691 19.9512 21.9208 19.845 21.66 19.845ZM6.67344 24.8153V27.5741L3.96978 24.8153H6.67344ZM0.625712 7.89283V0.999558C0.625712 0.44729 1.06406 0 1.6053 0H21.66C21.9208 0 22.1694 0.104952 22.353 0.29237C22.5367 0.479788 22.6396 0.734671 22.6396 0.999545V7.89282C22.6396 8.44384 22.2012 8.89238 21.66 8.89238C21.12 8.89238 20.6804 8.44384 20.6804 7.89282V1.9991H2.58487V7.89282C2.58487 8.44384 2.14529 8.89238 1.60528 8.89238C1.06405 8.89238 0.625712 8.44385 0.625712 7.89283ZM0.979585 18.0445C0.438353 18.0445 0 17.5972 0 17.0449V11.4423C0 10.89 0.438353 10.4427 0.979585 10.4427C1.52082 10.4427 1.95917 10.89 1.95917 11.4423V13.244H3.42855V11.4423C3.42855 10.89 3.8669 10.4427 4.40813 10.4427C4.94937 10.4427 5.38772 10.89 5.38772 11.4423V17.0449C5.38772 17.5972 4.94937 18.0445 4.40813 18.0445C3.8669 18.0445 3.42855 17.5972 3.42855 17.0449V15.2432H1.95917V17.0449C1.95917 17.3098 1.85632 17.5647 1.67264 17.7521C1.48897 17.9395 1.23917 18.0445 0.979585 18.0445ZM8.14294 17.0549V12.432H7.34702C6.80578 12.432 6.36743 11.9847 6.36743 11.4325C6.36743 10.8802 6.80578 10.4329 7.34702 10.4329H10.898C11.4392 10.4329 11.8776 10.8802 11.8776 11.4325C11.8776 11.9847 11.4392 12.432 10.898 12.432H10.102V17.0549C10.102 17.6072 9.6637 18.0545 9.12246 18.0545C8.58123 18.0545 8.14294 17.6072 8.14294 17.0549ZM24 17.0549C24 17.3198 23.8971 17.5747 23.7135 17.7621C23.5298 17.9495 23.28 18.0545 23.0204 18.0545H20.6939C20.1527 18.0545 19.7143 17.6072 19.7143 17.0549V11.4324C19.7143 10.8802 20.1527 10.4329 20.6939 10.4329C21.2351 10.4329 21.6735 10.8802 21.6735 11.4324V16.0554H23.0204C23.28 16.0554 23.5298 16.1603 23.7135 16.3477C23.8971 16.5351 24 16.79 24 17.0549ZM16.7755 17.0549V14.2824L16.5612 14.556C16.3751 14.7934 16.0935 14.9309 15.7959 14.9309C15.4984 14.9309 15.2167 14.7934 15.0306 14.556L14.8164 14.2824V17.0549C14.8164 17.6072 14.378 18.0545 13.8368 18.0545C13.2955 18.0545 12.8572 17.6072 12.8572 17.0549V11.4325C12.8572 10.4904 14.0241 10.0718 14.6021 10.8077L15.7959 12.3308L16.9898 10.8077C17.5665 10.0718 18.7347 10.4904 18.7347 11.4325V17.0549C18.7347 17.6072 18.2963 18.0545 17.7551 18.0545C17.2139 18.0545 16.7755 17.6072 16.7755 17.0549Z" fill="white"/>
</svg>
