<svg width="31" height="34" viewBox="0 0 31 34" fill="none" xmlns="http://www.w3.org/2000/svg">
<path d="M3.01081 18.0615C3.71607 18.0615 4.30092 17.4767 4.30092 16.7714V6.45055C4.30092 4.31757 6.03827 2.58022 8.17125 2.58022H18.0793C19.1114 2.58022 20.0919 2.97585 20.8143 3.71552L24.6675 7.56864C25.4071 8.30831 25.8028 9.27159 25.8028 10.3037V16.7714C25.8028 17.4767 26.3876 18.0615 27.0929 18.0615C27.7981 18.0615 28.383 17.4767 28.383 16.7714V10.3037C28.383 8.58353 27.7121 6.96659 26.4908 5.74529L22.6377 1.89216C21.4164 0.670857 19.7994 0 18.0793 0H8.17125C4.61055 0 1.7207 2.88985 1.7207 6.45055V16.7714C1.7207 17.4767 2.30555 18.0615 3.01081 18.0615Z" fill="white"/>
<path d="M26.2321 25.802C25.5268 25.802 24.942 26.3869 24.942 27.0922C24.942 27.7974 25.5268 28.3823 26.2321 28.3823C26.9373 28.3823 27.5222 28.9671 27.5222 29.6724C27.5222 30.3776 26.9373 30.9625 26.2321 30.9625H24.5119C23.8067 30.9625 23.2218 30.3776 23.2218 29.6724V24.5119C23.2218 23.8067 23.8067 23.2218 24.5119 23.2218H28.8123C29.5176 23.2218 30.1024 22.637 30.1024 21.9317C30.1024 21.2265 29.5176 20.6416 28.8123 20.6416H24.5119C22.3789 20.6416 20.6416 22.3789 20.6416 24.5119V29.6724C20.6416 31.8054 22.3789 33.5427 24.5119 33.5427H26.2321C28.3651 33.5427 30.1024 31.8054 30.1024 29.6724C30.1024 27.5394 28.3651 25.802 26.2321 25.802Z" fill="white"/>
<path d="M15.9118 20.6416H14.1916C12.0586 20.6416 10.3213 22.3789 10.3213 24.5119V32.2526C10.3213 32.9578 10.9061 33.5427 11.6114 33.5427C12.3167 33.5427 12.9015 32.9578 12.9015 32.2526V28.3135C13.0391 28.3651 13.1767 28.3823 13.3315 28.3823H15.9118C18.0447 28.3823 19.7821 26.6449 19.7821 24.5119C19.7821 22.3789 18.0447 20.6416 15.9118 20.6416ZM15.9118 25.802H13.3315C13.1767 25.802 13.0391 25.8364 12.9015 25.8708V24.5119C12.9015 23.8067 13.4864 23.2218 14.1916 23.2218H15.9118C16.617 23.2218 17.2019 23.8067 17.2019 24.5119C17.2019 25.2172 16.617 25.802 15.9118 25.802Z" fill="white"/>
<path d="M8.17069 20.6416C7.46543 20.6416 6.88058 21.2265 6.88058 21.9317V27.0922C6.88058 29.2251 5.14324 30.9625 3.01026 30.9625H1.29011C0.58485 30.9625 0 31.5473 0 32.2526C0 32.9578 0.58485 33.5427 1.29011 33.5427H3.01026C6.57096 33.5427 9.4608 30.6529 9.4608 27.0922V21.9317C9.4608 21.2265 8.87595 20.6416 8.17069 20.6416Z" fill="white"/>
</svg>
