<svg width="26" height="29" viewBox="0 0 26 29" fill="none" xmlns="http://www.w3.org/2000/svg">
<path d="M24.544 15.912H1.456C0.676 15.912 0 15.288 0 14.456C0 13.676 0.624 13 1.456 13H24.544C25.324 13 26 13.624 26 14.456C26 15.236 25.376 15.912 24.544 15.912Z" fill="white"/>
<path d="M22.6714 5.356L17.7314 0.416C17.4714 0.156 17.1074 0 16.6914 0H5.77137C4.15937 0 2.85938 1.3 2.85938 2.912V13H5.77137V3.64C5.77137 3.224 6.08338 2.912 6.49938 2.912H13.7274V6.812C13.7274 8.268 14.8714 9.412 16.3274 9.412H20.2274V13H23.1394V6.396C23.0874 5.98 22.9834 5.616 22.6714 5.356ZM16.5874 6.5V3.38L19.7074 6.5H16.5874Z" fill="white"/>
<path d="M20.2274 25.2715C20.2274 25.6875 19.9154 25.9995 19.4994 25.9995H17.3154H15.8594H6.49938C6.08338 25.9995 5.77137 25.6875 5.77137 25.2715V20.2275C5.77137 19.4475 5.14737 18.7715 4.31537 18.7715C3.53537 18.7715 2.85938 19.3955 2.85938 20.2275V25.9995C2.85938 27.6115 4.15937 28.9115 5.77137 28.9115H15.8594H17.3154H20.2274C21.8394 28.9115 23.1394 27.6115 23.1394 25.9995V20.2275C23.1394 19.4475 22.5154 18.7715 21.6834 18.7715C20.9034 18.7715 20.2274 19.3955 20.2274 20.2275V25.2715Z" fill="white"/>
<path d="M14.8711 18.7714H8.68308C8.26708 18.7714 7.95508 18.4594 7.95508 18.0434C7.95508 17.6274 8.26708 17.3154 8.68308 17.3154H14.8711C15.2871 17.3154 15.5991 17.6274 15.5991 18.0434C15.5991 18.4594 15.2351 18.7714 14.8711 18.7714Z" fill="white"/>
<path d="M12.9991 21.6845H8.68308C8.26708 21.6845 7.95508 21.3725 7.95508 20.9565C7.95508 20.5405 8.26708 20.2285 8.68308 20.2285H12.9991C13.4151 20.2285 13.7271 20.5405 13.7271 20.9565C13.7271 21.3725 13.4151 21.6845 12.9991 21.6845Z" fill="white"/>
</svg>
