<svg width="33" height="33" viewBox="0 0 33 33" fill="none" xmlns="http://www.w3.org/2000/svg">
<path d="M30.6382 22.6874C31.9376 22.6874 32.9997 21.6252 32.9997 20.3258V16.7988C32.9997 15.4995 31.9375 14.4373 30.6382 14.4373H27.8435V13.4061C27.8435 11.7045 26.4513 10.3123 24.7498 10.3123H17.5311V7.49706C17.5311 6.92986 17.0671 6.46582 16.4999 6.46582C15.9327 6.46582 15.4686 6.92986 15.4686 7.49706V10.3123H8.24993C6.5484 10.3123 5.15621 11.7045 5.15621 13.4061V14.4373H2.36153C1.06216 14.4373 0 15.4995 0 16.7988V20.3258C0 21.6252 1.0622 22.6874 2.36153 22.6874H5.15621V24.7499H2.36153C1.06216 24.7499 0 25.812 0 27.1114V30.6384C0 31.9378 1.0622 32.9999 2.36153 32.9999H3.09373C3.66092 32.9999 4.12497 32.5359 4.12497 31.9687C4.12497 31.4015 3.66092 30.9374 3.09373 30.9374H2.36153C2.19653 30.9374 2.06247 30.8034 2.06247 30.6384V27.1114C2.06247 26.9464 2.19653 26.8123 2.36153 26.8123H10.0135C10.1785 26.8123 10.3126 26.9464 10.3126 27.1114V30.6384C10.3126 30.8034 10.1785 30.9374 10.0135 30.9374H7.21882C6.65163 30.9374 6.18758 31.4015 6.18758 31.9687C6.18758 32.5359 6.65163 32.9999 7.21882 32.9999H10.0135C11.3129 32.9999 12.375 31.9377 12.375 30.6384V29.9062H20.625V30.6384C20.625 31.9378 21.6872 32.9999 22.9865 32.9999H30.6385C31.9378 32.9999 33 31.9377 33 30.6384V27.1114C33 25.812 31.9378 24.7499 30.6385 24.7499H27.8438V22.6874H30.6382ZM30.9373 16.7989V20.3259C30.9373 20.4909 30.8032 20.625 30.6382 20.625H22.9862C22.8212 20.625 22.6872 20.4909 22.6872 20.3259V16.7989C22.6872 16.6339 22.8212 16.4998 22.9862 16.4998H30.6382C30.8032 16.4998 30.9373 16.6339 30.9373 16.7989ZM2.0625 20.3259V16.7989C2.0625 16.6339 2.19656 16.4998 2.36156 16.4998H10.0135C10.1785 16.4998 10.3126 16.6339 10.3126 16.7989V20.3259C10.3126 20.4909 10.1785 20.625 10.0135 20.625H2.36156C2.19656 20.625 2.0625 20.4909 2.0625 20.3259ZM30.9373 27.1113V30.6383C30.9373 30.8033 30.8032 30.9374 30.6382 30.9374H22.9862C22.8212 30.9374 22.6872 30.8033 22.6872 30.6383V27.1113C22.6872 26.9463 22.8212 26.8123 22.9862 26.8123H30.6382C30.8032 26.8123 30.9373 26.9463 30.9373 27.1113ZM25.7811 24.7498H22.9864C21.687 24.7498 20.6249 25.812 20.6249 27.1113V27.8435H12.3749V27.1113C12.3749 25.8119 11.3127 24.7498 10.0134 24.7498H7.21871V22.6873H10.0134C11.3128 22.6873 12.3749 21.6251 12.3749 20.3258V16.7988C12.3749 15.4994 11.3127 14.4372 10.0134 14.4372H7.21871V13.406C7.21871 12.8388 7.68275 12.3748 8.24995 12.3748H24.7498C25.317 12.3748 25.7811 12.8388 25.7811 13.406V14.4372H22.9864C21.687 14.4372 20.6249 15.4994 20.6249 16.7988V20.3258C20.6249 21.6251 21.687 22.6873 22.9864 22.6873H25.7811V24.7498Z" fill="white"/>
<path d="M20.326 8.25007H12.674C11.3747 8.25007 10.3125 7.18787 10.3125 5.88854V2.36153C10.3125 1.06216 11.3747 0 12.674 0H20.326C21.6254 0 22.6875 1.0622 22.6875 2.36153V5.88854C22.6875 7.1879 21.6253 8.25007 20.326 8.25007ZM12.674 2.06262C12.509 2.06262 12.375 2.19668 12.375 2.36168V5.88869C12.375 6.05369 12.509 6.18775 12.674 6.18775H20.326C20.491 6.18775 20.6251 6.05369 20.6251 5.88869V2.36168C20.6251 2.19668 20.491 2.06262 20.326 2.06262H12.674Z" fill="white"/>
</svg>
