<svg width="23" height="31" viewBox="0 0 23 31" fill="none" xmlns="http://www.w3.org/2000/svg">
<path d="M14.1666 2.01502H2.01739V28.2998H20.2636V10.1199H14.1666V2.01502ZM9.01103 19.3442L9.36967 18.0009C9.50417 17.5083 9.95248 17.2396 10.4456 17.374C10.8939 17.4635 11.1629 17.9561 11.0732 18.4486L10.8043 19.3442H13.0458L13.4045 18.0009C13.539 17.5083 14.0321 17.2396 14.4804 17.374C14.9735 17.4635 15.2425 17.9561 15.108 18.4486L14.8839 19.3442H15.3322C15.8253 19.3442 16.2288 19.7472 16.2288 20.2398C16.2288 20.7323 15.8253 21.0906 15.3322 21.0906H14.3907L13.7631 23.3742H14.2562C14.7494 23.3742 15.1529 23.7772 15.1529 24.2698C15.1529 24.7624 14.7494 25.1206 14.2562 25.1206H13.3148L12.9562 26.5087C12.8217 26.9565 12.3285 27.2252 11.8802 27.1356C11.3871 27.0013 11.1181 26.5087 11.2526 26.0609L11.4767 25.1206H9.28001L8.87653 26.5087C8.78687 26.9565 8.29373 27.2252 7.80059 27.1356C7.35228 27.0013 7.08329 26.5087 7.21779 26.0609L7.44194 25.1206H6.9488C6.45566 25.1206 6.05218 24.7624 6.05218 24.2698C6.05218 23.7772 6.45566 23.3742 6.9488 23.3742H7.93508L8.51788 21.0906H8.02474C7.5316 21.0906 7.12812 20.7323 7.12812 20.2398C7.12812 19.7472 7.5316 19.3442 8.02474 19.3442H9.01103ZM9.72832 23.3742H11.9699L12.5975 21.0906H10.356L9.72832 23.3742ZM4.52793 14.1947H17.7979C19.098 14.1947 19.098 16.2097 17.7979 16.2097H4.52793C3.183 16.2097 3.183 14.1947 4.52793 14.1947ZM4.52793 12.0901H11.6561C12.9562 12.0901 12.9562 10.1199 11.6561 10.1199H4.52793C3.183 10.1199 3.183 12.0901 4.52793 12.0901ZM4.52793 6.04506H11.6561C12.9562 6.04506 12.9562 8.06008 11.6561 8.06008H4.52793C3.183 8.06008 3.183 6.04506 4.52793 6.04506ZM15.6908 0L22.281 8.77654V30.3596H0V0H15.6908Z" fill="white"/>
</svg>
