<svg width="28" height="32" viewBox="0 0 28 32" fill="none" xmlns="http://www.w3.org/2000/svg">
<path d="M8.68 14.8078H6.5246C6.28759 14.8078 6.0603 14.7137 5.89271 14.5461C5.72513 14.3785 5.63098 14.1512 5.63098 13.9142V10.161C5.63098 9.92404 5.72513 9.69674 5.89271 9.52915C6.0603 9.36157 6.28759 9.26742 6.5246 9.26742C6.7616 9.26742 6.98889 9.36157 7.15648 9.52915C7.32406 9.69674 7.41821 9.92404 7.41821 10.161V13.0206H8.68C8.917 13.0206 9.1443 12.9265 9.31188 12.7589C9.47947 12.5913 9.57362 12.364 9.57362 12.127V9.14827C9.57362 8.91127 9.47947 8.68398 9.31188 8.51639C9.1443 8.3488 8.917 8.25465 8.68 8.25465H5.54936C5.31236 8.25465 5.08506 8.16051 4.91748 7.99292C4.74989 7.82533 4.65575 7.59804 4.65575 7.36104C4.65575 7.12404 4.74989 6.89674 4.91748 6.72916C5.08506 6.56157 5.31236 6.46742 5.54936 6.46742H8.68C9.39101 6.46742 10.0729 6.74987 10.5756 7.25262C11.0784 7.75538 11.3609 8.43727 11.3609 9.14827V12.127C11.3609 12.838 11.0784 13.5199 10.5756 14.0226C10.0729 14.5254 9.39101 14.8078 8.68 14.8078ZM12.2866 12.7227V10.3267C12.2866 9.77365 12.5063 9.24329 12.8974 8.85226C13.2884 8.46123 13.8187 8.24155 14.3717 8.24155H15.2654C15.8184 8.24155 16.3487 8.46123 16.7398 8.85226C17.1308 9.24329 17.3505 9.77365 17.3505 10.3267V12.7227C17.3505 13.2757 17.1308 13.8061 16.7398 14.1971C16.3487 14.5882 15.8184 14.8078 15.2654 14.8078H14.3717C14.0979 14.8078 13.8268 14.7539 13.5738 14.6491C13.3208 14.5443 13.091 14.3908 12.8974 14.1971C12.7037 14.0035 12.5501 13.7737 12.4454 13.5207C12.3406 13.2677 12.2866 12.9966 12.2866 12.7227ZM14.0739 12.7227C14.0739 12.8017 14.1053 12.8775 14.1611 12.9334C14.217 12.9892 14.2927 13.0206 14.3717 13.0206H15.2654C15.3444 13.0206 15.4201 12.9892 15.476 12.9334C15.5319 12.8775 15.5632 12.8017 15.5632 12.7227V10.3267C15.5632 10.2477 15.5319 10.1719 15.476 10.116C15.4201 10.0602 15.3444 10.0288 15.2654 10.0288H14.3717C14.2927 10.0288 14.217 10.0602 14.1611 10.116C14.1053 10.1719 14.0739 10.2477 14.0739 10.3267V12.7227ZM20.3637 10.027H22.4489C22.6859 10.027 22.9131 9.93285 23.0807 9.76526C23.2483 9.59768 23.3425 9.37038 23.3425 9.13338C23.3425 8.89638 23.2483 8.66908 23.0807 8.5015C22.9131 8.33391 22.6859 8.23976 22.4489 8.23976H20.3637C19.8107 8.23976 19.2804 8.45944 18.8894 8.85047C18.4983 9.24151 18.2786 9.77186 18.2786 10.3249V12.7227C18.2786 13.2757 18.4983 13.8061 18.8894 14.1971C19.2804 14.5882 19.8107 14.8078 20.3637 14.8078H22.4489C22.6859 14.8078 22.9131 14.7137 23.0807 14.5461C23.2483 14.3785 23.3425 14.1512 23.3425 13.9142C23.3425 13.6772 23.2483 13.4499 23.0807 13.2823C22.9131 13.1148 22.6859 13.0206 22.4489 13.0206H20.3637C20.2847 13.0206 20.209 12.9892 20.1531 12.9334C20.0973 12.8775 20.0659 12.8017 20.0659 12.7227V10.3267C20.0659 10.2477 20.0973 10.1719 20.1531 10.116C20.209 10.0602 20.2847 10.0288 20.3637 10.0288V10.027ZM19.9986 23.9674H8.00145C7.76444 23.9674 7.53715 24.0616 7.36956 24.2292C7.20198 24.3967 7.10783 24.624 7.10783 24.861C7.10783 25.098 7.20198 25.3253 7.36956 25.4929C7.53715 25.6605 7.76444 25.7547 8.00145 25.7547H19.9986C20.2356 25.7547 20.4629 25.6605 20.6304 25.4929C20.798 25.3253 20.8922 25.098 20.8922 24.861C20.8922 24.624 20.798 24.3967 20.6304 24.2292C20.4629 24.0616 20.2356 23.9674 19.9986 23.9674ZM19.9986 18.7916H8.00145C7.76444 18.7916 7.53715 18.8857 7.36956 19.0533C7.20198 19.2209 7.10783 19.4482 7.10783 19.6852C7.10783 19.9222 7.20198 20.1495 7.36956 20.3171C7.53715 20.4847 7.76444 20.5788 8.00145 20.5788H19.9986C20.2356 20.5788 20.4629 20.4847 20.6304 20.3171C20.798 20.1495 20.8922 19.9222 20.8922 19.6852C20.8922 19.4482 20.798 19.2209 20.6304 19.0533C20.4629 18.8857 20.2356 18.7916 19.9986 18.7916ZM28 5.38317V26.6155C27.9991 27.9582 27.4652 29.2457 26.5158 30.1951C25.5663 31.1446 24.2789 31.6784 22.9362 31.6793H5.06383C3.72111 31.6784 2.43365 31.1446 1.48421 30.1951C0.53476 29.2457 0.000946801 27.9582 0 26.6155V5.38317C0.000946801 4.04044 0.53476 2.75299 1.48421 1.80354C2.43365 0.854096 3.72111 0.320283 5.06383 0.319336H22.9362C23.802 0.320163 24.653 0.543142 25.408 0.966938C26.163 1.39073 26.7966 2.00117 27.2482 2.73985L27.2595 2.75831C27.7433 3.54841 27.9995 4.45673 28 5.38317ZM25.617 4.8321C25.6404 4.21308 25.4439 3.60577 25.0622 3.11787C24.6805 2.62997 24.1384 2.29301 23.5319 2.16674L23.4962 2.16019C23.3116 2.12462 23.1241 2.10667 22.9362 2.10657H5.06383C4.19531 2.10815 3.36281 2.45386 2.74867 3.068C2.13453 3.68214 1.78881 4.51464 1.78723 5.38317V24.8759C1.78723 26.208 2.5897 28.1025 4.46808 28.1025H22.3404C23.2089 28.1009 24.0414 27.7552 24.6556 27.1411C25.2697 26.5269 25.6154 25.6944 25.617 24.8259V4.8321Z" fill="white"/>
</svg>
