<svg width="35" height="25" viewBox="0 0 35 25" fill="none" xmlns="http://www.w3.org/2000/svg">
<path d="M6.36797 4.76717C6.36797 3.63906 7.27773 2.72929 8.40584 2.72929H26.1644C27.2926 2.72929 28.2023 3.63906 28.2023 4.76717V8.07871H30.9316V4.76717C30.9316 2.14704 28.7846 0 26.1644 0H8.40584C5.78572 0 3.63867 2.14704 3.63867 4.76717V8.07871H6.36797V4.76717Z" fill="white"/>
<path d="M28.2023 19.8333C28.2023 20.9614 27.2926 21.8712 26.1644 21.8712H8.40584C7.27773 21.8712 6.36797 20.9614 6.36797 19.8333V16.4854H3.63867V19.8333C3.63867 22.4534 5.78572 24.6005 8.40584 24.6005H26.1644C28.7846 24.6005 30.9316 22.4534 30.9316 19.8333V16.4854H28.2023V19.8333Z" fill="white"/>
<path d="M9.60711 15.8662C9.60711 16.6304 10.4805 17.0671 11.0991 16.594L15.7207 13.0277C16.1938 12.6638 16.1938 11.936 15.7207 11.5721L11.0991 8.00585C10.4805 7.53277 9.60711 7.96946 9.60711 8.73366V10.2985H0.727812C0.327515 10.2985 0 10.626 0 11.0263V13.5008C0 13.9011 0.327515 14.2286 0.727812 14.2286H9.60711V15.8662Z" fill="white"/>
<path d="M33.8428 10.2985H24.9635V8.73366C24.9635 7.96946 24.0902 7.53277 23.4715 8.00585L18.8499 11.5721C18.3768 11.936 18.3768 12.6638 18.8499 13.0277L23.4715 16.594C24.0902 17.0671 24.9635 16.6304 24.9635 15.8662V14.3014H33.8428C34.2431 14.3014 34.5707 13.9739 34.5707 13.5736V11.099C34.5707 10.626 34.2431 10.2985 33.8428 10.2985Z" fill="white"/>
</svg>
