<svg width="29" height="33" viewBox="0 0 29 33" fill="none" xmlns="http://www.w3.org/2000/svg">
<path d="M29 3.97472V29.0215C29 31.2147 27.1319 33 24.8358 33H4.18759C2.02998 33 0.275116 31.2611 0.275116 29.1231V28.993H2.57657V29.1231C2.57657 30.0032 3.29937 30.7195 4.18759 30.7195H24.8358C25.8625 30.7195 26.6985 29.9569 26.6985 29.0215V3.97472C26.6985 3.03755 25.8643 2.27676 24.8358 2.27676H9.51132V6.08956C9.51132 7.7768 8.12685 9.15047 6.42235 9.15047H2.57459V16.4998H0.273136V8.01019C0.273136 7.93714 0.282126 7.8641 0.294712 7.79461V7.7857C0.314491 7.68593 0.350449 7.59328 0.395401 7.50598C0.406189 7.48638 0.416978 7.46678 0.427765 7.44718C0.478112 7.3581 0.537443 7.27436 0.611163 7.20309L7.54407 0.333173C7.61599 0.261906 7.70049 0.203109 7.7904 0.153224C7.81018 0.142534 7.82995 0.131844 7.84973 0.121154C7.93963 0.0766122 8.03313 0.0409791 8.13202 0.0213801H8.13742C8.20934 0.0071267 8.28126 0 8.35677 0H24.832C27.128 0 28.9962 1.78526 28.9962 3.9785L29 3.97472ZM2.55857 26.5202C4.00955 26.5202 4.97151 25.6917 4.97151 24.1292V19.1831H3.18609V24.1292C3.18609 24.6673 2.93436 24.9363 2.50642 24.9363C2.04613 24.9363 1.77645 24.6369 1.77645 24.0152H0C0 25.6507 1.05545 26.5202 2.55857 26.5202ZM8.19714 23.8406V26.449H6.41172V19.1831H9.30474C11.1009 19.1831 12 20.188 12 21.5225C12 22.7233 11.1747 23.8404 9.30474 23.8404L8.19714 23.8406ZM8.19714 22.433H9.16808C9.87831 22.433 10.1821 22.0803 10.1821 21.5226C10.1821 20.9631 9.88008 20.6122 9.16808 20.6122H8.19714V22.433ZM16.3512 20.7351C17.02 20.7351 17.5217 20.9934 17.7932 21.4798H19.7674C19.3809 19.9904 18.1061 19.0995 16.3512 19.0995C14.1576 19.0995 12.6221 20.6317 12.6221 22.8036C12.6221 24.9772 14.1684 26.4988 16.362 26.4988C18.293 26.4988 19.5157 25.2463 19.8915 23.9938V22.3475H16.006V23.6517H18.2715C18 24.4695 17.3833 24.9345 16.495 24.9345C15.2112 24.9345 14.4381 24.147 14.4381 22.8018C14.4381 21.5404 15.2004 20.7315 16.3494 20.7315L16.3512 20.7351Z" fill="white"/>
</svg>
