<svg width="26" height="30" viewBox="0 0 26 30" fill="none" xmlns="http://www.w3.org/2000/svg">
<path d="M26 3.61338V26.3832C26 28.377 24.3092 30 22.2311 30H3.54288C1.59007 30 0.00179103 28.4192 0.00179103 26.4755V26.3573H2.08478V26.4755C2.08478 27.2757 2.73897 27.9268 3.54288 27.9268H22.2311C23.1603 27.9268 23.917 27.2335 23.917 26.3832V3.61338C23.917 2.76141 23.1619 2.06979 22.2311 2.06979H8.36126V5.53597C8.36126 7.06982 7.10821 8.3186 5.56551 8.3186H2.08299V14.9998H0V7.28199C0 7.21558 0.00813659 7.14918 0.0195281 7.08601V7.07791C0.0374289 6.98721 0.069974 6.90298 0.110659 6.82362C0.120423 6.8058 0.130187 6.78798 0.139951 6.77016C0.185519 6.68918 0.239218 6.61305 0.30594 6.54826L6.58075 0.302885C6.64584 0.238096 6.72232 0.184644 6.80369 0.139295C6.8216 0.129576 6.8395 0.119858 6.8574 0.11014C6.93876 0.0696475 7.02339 0.0372537 7.11289 0.0194365H7.11777C7.18287 0.00647882 7.24796 0 7.31631 0H22.2276C24.3057 0 25.9965 1.62296 25.9965 3.61682L26 3.61338ZM2.57925 24.0442H0.0926518V17.4389H2.57925C4.69802 17.4389 6.05851 18.7752 6.05851 20.7414C6.05851 22.6981 4.69807 24.0442 2.57925 24.0442ZM2.4751 22.6512C3.69398 22.6512 4.41161 21.9547 4.41161 20.7416C4.41161 19.5268 3.69231 18.8125 2.4751 18.8125H1.71026V22.6512H2.4751ZM10.1009 24.1089C8.21974 24.1089 6.69003 22.7063 6.69003 20.7221C6.69003 18.7363 8.22136 17.345 10.1009 17.345C11.9919 17.345 13.4955 18.738 13.4955 20.7221C13.4955 22.7079 11.9821 24.1089 10.1009 24.1089ZM10.1009 22.6415C11.1603 22.6415 11.8503 21.8802 11.8503 20.7221C11.8503 19.5462 11.1603 18.8028 10.1009 18.8028C9.02365 18.8028 8.34339 19.5462 8.34339 20.7221C8.34339 21.8786 9.02361 22.6415 10.1009 22.6415ZM17.4351 18.8319C18.0503 18.8319 18.5515 19.1137 18.8249 19.679H20.6019C20.2244 18.2488 19.0332 17.3645 17.4546 17.3645C15.4986 17.3645 14.1186 18.7575 14.1186 20.7319C14.1186 22.7079 15.4986 24.0912 17.4546 24.0912C19.0332 24.0912 20.2244 23.2165 20.6019 21.7863H18.8249C18.5515 22.35 18.0503 22.6334 17.4351 22.6334C16.4425 22.6334 15.7623 21.8997 15.7623 20.7319C15.7623 19.5657 16.4425 18.8319 17.4351 18.8319Z" fill="white"/>
</svg>
