<svg width="26" height="31" viewBox="0 0 26 31" fill="none" xmlns="http://www.w3.org/2000/svg">
<path d="M5.19353 19.4268C5.19353 20.9648 5.65137 22.4683 6.50916 23.7471C7.36695 25.0259 8.58615 26.0226 10.0126 26.6112C11.439 27.1998 13.0087 27.3538 14.523 27.0537C16.0373 26.7537 17.4282 26.013 18.52 24.9255C19.6118 23.838 20.3553 22.4524 20.6565 20.9439C20.9577 19.4355 20.8031 17.8719 20.2122 16.451C19.6214 15.03 18.6208 13.8156 17.337 12.9611C16.0533 12.1066 14.544 11.6505 13 11.6505C10.9303 11.6528 8.94602 12.4728 7.48251 13.9307C6.01901 15.3885 5.19582 17.3651 5.19353 19.4268ZM13 25.0566C11.5951 25.057 10.2405 24.536 9.20045 23.5952C8.1604 22.6544 7.50956 21.3613 7.37491 19.9683C7.24027 18.5753 7.63149 17.1823 8.47223 16.0611C9.31297 14.94 10.5429 14.171 11.9221 13.9044V19.4268C11.9221 19.7116 12.0356 19.9847 12.2378 20.1861C12.4399 20.3875 12.7141 20.5006 13 20.5006H18.5449C18.2935 21.7823 17.6031 22.9372 16.5918 23.7681C15.5805 24.5991 14.311 25.0545 13 25.0566ZM18.5449 18.3531H14.0779V13.9039C15.182 14.1195 16.1965 14.6579 16.9921 15.4503C17.7877 16.2427 18.3283 17.2533 18.5449 18.3531ZM25.6065 7.65072L17.8238 0.316828C17.8144 0.306338 17.8035 0.297292 17.7915 0.289984C17.7526 0.25311 17.7112 0.219022 17.6675 0.187975C17.5944 0.136364 17.5146 0.094827 17.4303 0.0644908C17.3818 0.0483842 17.3279 0.0322776 17.2794 0.0215398H17.2687C17.2015 0.00644187 17.1327 -0.000765713 17.0638 6.43054e-05H4.31177C3.1687 0.00162673 2.0729 0.454647 1.26462 1.2598C0.456347 2.06495 0.00156849 3.15652 0 4.29517V26.7049C0.00156849 27.8435 0.456347 28.9351 1.26462 29.7403C2.0729 30.5454 3.1687 30.9984 4.31177 31H21.6882C22.8313 30.9984 23.9271 30.5454 24.7354 29.7403C25.5437 28.9351 25.9984 27.8435 26 26.7049V8.47753C26.0003 8.31924 25.9652 8.16287 25.8971 8.01983C25.829 7.87679 25.7298 7.75069 25.6065 7.65072ZM23.8441 26.7049C23.8441 27.2745 23.617 27.8207 23.2127 28.2234C22.8084 28.6262 22.26 28.8524 21.6882 28.8524H4.31177C3.74 28.8524 3.19164 28.6262 2.78733 28.2234C2.38302 27.8207 2.15589 27.2745 2.15589 26.7049V4.29517C2.15589 3.7256 2.38302 3.17937 2.78733 2.77662C3.19164 2.37388 3.74 2.14762 4.31177 2.14762H15.9859V8.47753C15.9868 8.76205 16.1006 9.03468 16.3026 9.23587C16.5045 9.43705 16.7782 9.55046 17.0638 9.55131H23.8441V26.7049Z" fill="white"/>
</svg>
