<svg width="34" height="34" viewBox="0 0 34 34" fill="none" xmlns="http://www.w3.org/2000/svg">
<path fill-rule="evenodd" clip-rule="evenodd" d="M7.99142 1.91555L7.99449 1.911C8.63276 0.758947 9.85701 0.0394599 11.1874 0.036429C13.9957 0 20.0276 0 22.8329 0C24.1848 0 25.4275 0.730095 26.0719 1.90037C27.2623 4.00264 29.2263 5.64799 31.5919 6.54191C33.2161 7.11871 34.2065 8.74284 33.9635 10.4308L33.962 10.4368C31.6627 25.7506 17.6362 33.8349 17.6362 33.8349C17.2532 34.055 16.7795 34.055 16.3966 33.8349C16.3966 33.8349 2.37176 25.7522 0.0385538 10.4446C0.0370159 10.4416 0.0370158 10.4385 0.0370158 10.434C-0.209062 8.72942 0.792178 7.0901 2.43318 6.5086C4.80938 5.64339 6.77206 3.99948 7.99142 1.91555ZM10.1338 3.11162C8.63276 5.68594 6.21506 7.7213 3.28382 8.78677C3.27921 8.78829 3.27459 8.78981 3.26998 8.79133C2.72554 8.98258 2.39178 9.52597 2.47332 10.0906C4.35272 22.3992 14.4051 29.6562 17.0167 31.35C19.6282 29.6561 29.6757 22.3992 31.5274 10.086C31.6058 9.5365 31.2813 9.00831 30.7507 8.82311C30.7415 8.82008 30.7338 8.81704 30.7245 8.81249C27.8039 7.71356 25.3876 5.67353 23.9222 3.081C23.9191 3.07492 23.916 3.07037 23.9145 3.06582C23.6992 2.67421 23.2839 2.42832 22.8317 2.42832C20.0341 2.42832 14.0131 2.42832 11.2169 2.46475H11.2C10.7616 2.46475 10.3587 2.70154 10.1495 3.08251C10.1449 3.09313 10.1387 3.10224 10.1341 3.11135L10.1338 3.11162ZM9.99387 16.6449C9.514 16.1713 9.514 15.4003 9.99387 14.9267C10.4737 14.4531 11.2535 14.4531 11.7349 14.9267L15.6706 18.8125L23.4265 8.96905C23.8433 8.43931 24.6169 8.3452 25.1537 8.75655C25.6889 9.16638 25.7858 9.92985 25.3706 10.4596L16.7563 21.3883C16.5409 21.663 16.2149 21.833 15.8627 21.8543C15.509 21.877 15.1645 21.748 14.9153 21.5021L9.99387 16.6449Z" fill="white"/>
</svg>
