<svg width="28" height="28" viewBox="0 0 28 28" fill="none" xmlns="http://www.w3.org/2000/svg">
<path d="M23.8 5.6C26.0898 5.6 27.8733 7.58855 27.9935 10.0061L28 10.2667V23.3333C28 25.7795 26.2955 27.8524 24.0433 27.9925L23.8 28H9.8C7.51017 28 5.72674 26.0115 5.60647 23.5939L5.6 23.3333H8.4C8.4 24.3409 8.99661 25.0999 9.66543 25.1908L9.8 25.2H23.8C24.4761 25.2 25.115 24.5039 25.1922 23.5314L25.2 23.3333V10.2667C25.2 9.25912 24.6034 8.5001 23.9346 8.40916L23.8 8.4V5.6ZM18.2 0C20.5196 0 22.4 1.8804 22.4 4.2V18.2C22.4 20.5196 20.5196 22.4 18.2 22.4H4.2C1.8804 22.4 0 20.5196 0 18.2V4.2C0 1.8804 1.8804 0 4.2 0H18.2ZM18.2 2.8H4.2C3.4268 2.8 2.8 3.4268 2.8 4.2V18.2C2.8 18.9732 3.4268 19.6 4.2 19.6H18.2C18.9732 19.6 19.6 18.9732 19.6 18.2V4.2C19.6 3.4268 18.9732 2.8 18.2 2.8ZM9.8 15.4C10.5732 15.4 11.2 16.0268 11.2 16.8C11.2 17.518 10.6595 18.1097 9.96327 18.1906L9.8 18.2H5.6C4.8268 18.2 4.2 17.5732 4.2 16.8C4.2 16.082 4.74046 15.4903 5.43673 15.4094L5.6 15.4H9.8ZM16.8 8.4C17.5732 8.4 18.2 9.0268 18.2 9.8V12.6C18.2 13.3732 17.5732 14 16.8 14H5.6C4.8268 14 4.2 13.3732 4.2 12.6V9.8C4.2 9.0268 4.8268 8.4 5.6 8.4H16.8ZM14 4.2C14.7732 4.2 15.4 4.8268 15.4 5.6C15.4 6.31797 14.8595 6.90971 14.1633 6.99058L14 7H5.6C4.8268 7 4.2 6.3732 4.2 5.6C4.2 4.88203 4.74046 4.29029 5.43673 4.20942L5.6 4.2H14Z" fill="white"/>
</svg>
