<svg width="32" height="32" viewBox="0 0 32 32" fill="none" xmlns="http://www.w3.org/2000/svg">
<path d="M31.0387 4.19244C30.7756 3.70672 30.1688 3.52571 29.6831 3.78877C29.5985 3.83434 29.5203 3.89294 29.4526 3.96066L25.4147 7.99738L24.0018 6.58448L28.0384 2.54642C28.4291 2.15575 28.4291 1.52289 28.0384 1.13222C27.9707 1.0645 27.8926 1.0059 27.8079 0.960325C26.3065 0.152947 24.589 -0.156983 22.9013 0.0748395C18.9454 0.623059 16.0012 4.00489 16.0012 7.99761V10.3416L10.3431 15.9984H8.00053C3.58224 15.9984 0 19.5808 0 23.9992C0 28.4177 3.58224 32 8.00053 32C12.4188 32 16.0011 28.4177 16.0011 23.9992V21.6553L21.6578 15.9984H24.0017C27.9953 15.9984 31.3772 13.0528 31.9265 9.09805C32.1557 7.41038 31.846 5.69258 31.0387 4.19244ZM25.5526 2.20265L22.5863 5.16907L20.525 3.10767C21.9847 2.08023 23.8247 1.74947 25.5526 2.20265ZM28.2429 12.2413C27.1204 13.3703 25.593 14.0019 24.0003 13.998H21.2423C20.9767 13.998 20.7227 14.1034 20.5352 14.291L14.2925 20.5349C14.105 20.7224 14.0008 20.9776 14.0008 21.242V23.9988C14.0008 27.3129 11.3144 29.9993 8.00041 29.9993C4.68639 29.9993 2.00001 27.3129 2.00001 23.9988C2.00001 20.6846 4.68639 17.9982 8.00041 17.9982H10.7584C11.024 17.9982 11.278 17.8927 11.4655 17.7052L17.7069 11.4636C17.8957 11.2761 18.0012 11.0208 18.0012 10.7552V7.99711C17.9973 6.75089 18.3853 5.53464 19.1093 4.51877L24.71 10.1196C25.1007 10.5103 25.7335 10.5103 26.1242 10.1196L29.7978 6.44596C30.3421 8.51646 29.7509 10.721 28.243 12.2409L28.2429 12.2413ZM9.48267 20.3944C9.23005 20.1418 8.86153 20.0428 8.51647 20.1353L5.61915 20.9114C5.27406 21.0038 5.00451 21.2734 4.91207 21.6185L4.13598 24.5172C4.04353 24.8623 4.14249 25.2308 4.39511 25.4834L6.51635 27.6047C6.76897 27.8574 7.13749 27.9563 7.48255 27.8639L10.3812 27.0878C10.7263 26.9953 10.9958 26.7258 11.0883 26.3807L11.8643 23.4832C11.9568 23.1381 11.8578 22.7696 11.6052 22.517L9.48267 20.3944ZM9.30427 25.3049L7.52159 25.7828L6.2168 24.478L6.6947 22.6952L8.47738 22.2173L9.78217 23.5221L9.30427 25.3049Z" fill="white"/>
</svg>
