<svg width="29" height="40" viewBox="0 0 29 40" fill="none" xmlns="http://www.w3.org/2000/svg">
<path fill-rule="evenodd" clip-rule="evenodd" d="M5.80664 12.0959C5.80664 11.5711 6.23322 11.1445 6.75796 11.1445H21.9901C22.5148 11.1445 22.9414 11.5711 22.9414 12.0959V27.3279C22.9414 27.8527 22.5148 28.2793 21.9901 28.2793H6.75796C6.23323 28.2793 5.80664 27.8527 5.80664 27.3279V12.0959ZM7.71111 13.049V26.3748H21.0369V13.049H7.71111Z" fill="white"/>
<path fill-rule="evenodd" clip-rule="evenodd" d="M2.00027 19.7119V27.328C2.00027 29.9553 4.13142 32.0864 6.7587 32.0864H14.3748C14.7603 32.0864 15.1066 32.3184 15.2547 32.6754C15.4011 33.0306 15.3207 33.4394 15.0477 33.7124L9.33608 39.424L7.99029 38.0764L12.0759 33.9909H6.7586C3.0782 33.9909 0.0957031 31.0084 0.0957031 27.328V19.7119H2.00027Z" fill="white"/>
<path fill-rule="evenodd" clip-rule="evenodd" d="M26.7493 19.7121V12.096C26.7493 9.4687 24.6182 7.3376 21.9909 7.3376H14.3749C13.9893 7.3376 13.643 7.10557 13.4949 6.74857C13.3486 6.39339 13.4289 5.98464 13.702 5.71158L19.4135 0L20.7593 1.34579L16.6738 5.43313H21.991C25.6714 5.43313 28.6539 8.41562 28.6539 12.096V19.7121H26.7493Z" fill="white"/>
</svg>
