<svg width="28" height="28" viewBox="0 0 28 28" fill="none" xmlns="http://www.w3.org/2000/svg">
<path d="M26.9502 6.79837C26.4136 6.79837 25.979 6.36377 25.979 5.82717V1.94239H22.0942C21.5576 1.94239 21.123 1.50779 21.123 0.971196C21.123 0.434598 21.5576 0 22.0942 0H25.979C27.0522 0 27.9214 0.869228 27.9214 1.94239V5.82717C27.9214 6.36377 27.4868 6.79837 26.9502 6.79837Z" fill="white"/>
<path d="M6.79837 0.971196C6.79837 1.50779 6.36377 1.94239 5.82717 1.94239H1.94239V5.82717C1.94239 6.36377 1.50779 6.79837 0.971196 6.79837C0.434598 6.79837 0 6.36377 0 5.82717V1.94239C0 0.869228 0.869228 0 1.94239 0H5.82717C6.36377 0 6.79837 0.434598 6.79837 0.971196Z" fill="white"/>
<path d="M0.971196 21.123C1.50779 21.123 1.94239 21.5576 1.94239 22.0942V25.979H5.82717C6.36377 25.979 6.79837 26.4136 6.79837 26.9502C6.79837 27.4868 6.36377 27.9214 5.82717 27.9214H1.94239C0.869228 27.9214 0 27.0522 0 25.979V22.0942C0 21.5576 0.434598 21.123 0.971196 21.123Z" fill="white"/>
<path d="M21.123 26.9502C21.123 26.4136 21.5576 25.979 22.0942 25.979H25.979V22.0942C25.979 21.5576 26.4136 21.123 26.9502 21.123C27.4868 21.123 27.9214 21.5576 27.9214 22.0942V25.979C27.9214 27.0522 27.0522 27.9214 25.979 27.9214H22.0942C21.5576 27.9214 21.123 27.4868 21.123 26.9502Z" fill="white"/>
<path d="M20.2734 4.37012H7.6479C6.91101 4.37012 6.3125 4.96862 6.3125 5.70552V11.8969H21.6089V5.70552C21.6089 4.96862 21.0103 4.37012 20.2734 4.37012ZM18.3311 10.44H9.59029C9.38877 10.44 9.22609 10.2773 9.22609 10.0758C9.22609 9.87428 9.38876 9.7116 9.59029 9.7116H18.3311C18.5326 9.7116 18.6953 9.87428 18.6953 10.0758C18.6953 10.2773 18.5326 10.44 18.3311 10.44ZM18.3311 7.52643H9.59029C9.38877 7.52643 9.22609 7.36375 9.22609 7.16222C9.22609 6.96069 9.38876 6.79801 9.59029 6.79801H18.3311C18.5326 6.79801 18.6953 6.96069 18.6953 7.16222C18.6953 7.36375 18.5326 7.52643 18.3311 7.52643Z" fill="white"/>
<path d="M6.31348 16.0244V22.2158C6.31348 22.9527 6.91198 23.5512 7.64888 23.5512H20.2744C21.0113 23.5512 21.6098 22.9527 21.6098 22.2158V16.0244H6.31348ZM18.3321 21.1231H9.5913C9.38978 21.1231 9.22709 20.9604 9.22709 20.7589C9.22709 20.5574 9.38977 20.3947 9.5913 20.3947H18.3321C18.5336 20.3947 18.6963 20.5574 18.6963 20.7589C18.6963 20.9604 18.5336 21.1231 18.3321 21.1231ZM18.3321 18.2095H9.5913C9.38978 18.2095 9.22709 18.0469 9.22709 17.8453C9.22709 17.6438 9.38977 17.4811 9.5913 17.4811H18.3321C18.5336 17.4811 18.6963 17.6438 18.6963 17.8453C18.6963 18.0469 18.5336 18.2095 18.3321 18.2095Z" fill="white"/>
<path d="M3.27754 12.625H24.6438C25.1137 12.625 25.4936 13.0948 25.4936 13.4748V14.446C25.4936 14.9158 25.1137 15.2958 24.6438 15.2958H3.27754C2.80773 15.2958 2.42773 14.826 2.42773 14.446V13.4748C2.42773 13.005 2.80773 12.625 3.27754 12.625Z" fill="white"/>
</svg>
