<svg width="24" height="35" viewBox="0 0 24 35" fill="none" xmlns="http://www.w3.org/2000/svg">
<path fill-rule="evenodd" clip-rule="evenodd" d="M13.1272 0.61918C13.0318 0.457142 12.9005 0.316172 12.7363 0.205989C12.1547 -0.181276 11.3808 -0.00627915 11.0071 0.594876L0.595598 17.3803C-0.1799 18.6312 -0.200233 20.2321 0.547131 21.5041L2.93302 25.568C3.12533 25.8937 3.16755 26.2939 3.04872 26.6569L0.884852 33.2889C0.756645 33.6843 0.819186 34.1201 1.05371 34.4588C1.2898 34.7991 1.66819 35 2.07 35H20.8493C21.2511 35 21.6279 34.8007 21.8624 34.4636C22.0969 34.1266 22.1626 33.694 22.0375 33.2986L19.9893 26.8433C19.858 26.4317 19.9361 25.978 20.1957 25.6361L23.1929 21.7002C24.1858 20.3958 24.2702 18.5843 23.404 17.1875L13.1272 0.61918ZM3.81321 32.4075H19.1214L17.6127 27.6534C17.5673 27.5108 17.5314 27.3666 17.5017 27.2223H5.49555C5.4721 27.3115 5.44708 27.399 5.41894 27.4865L3.81321 32.4075ZM17.8566 24.6298H13.3005C13.3068 24.5763 13.3099 24.5229 13.3099 24.4678V17.9262C14.7671 17.393 15.8115 15.9526 15.8115 14.2593C15.8115 12.1123 14.1323 10.3704 12.0591 10.3704C9.98743 10.3704 8.30667 12.1123 8.30667 14.2593C8.30667 15.9526 9.3511 17.3931 10.8083 17.9262V24.4678C10.8083 24.5229 10.8114 24.5763 10.8177 24.6298H5.2797C5.21716 24.4904 5.1468 24.3527 5.06863 24.2198L2.6843 20.156C2.4357 19.7331 2.44195 19.1983 2.69993 18.7819L12.0591 3.69308L21.2995 18.589C21.5872 19.0557 21.559 19.6584 21.2291 20.0943L18.2319 24.0302C18.088 24.2198 17.9629 24.4208 17.8566 24.6298ZM10.8085 14.2595C10.8085 13.5433 11.3682 12.9632 12.0593 12.9632C12.7504 12.9632 13.3101 13.5433 13.3101 14.2595C13.3101 14.9757 12.7504 15.5558 12.0593 15.5558C11.3682 15.5558 10.8085 14.9757 10.8085 14.2595Z" fill="white"/>
</svg>
