<svg width="34" height="22" viewBox="0 0 34 22" fill="none" xmlns="http://www.w3.org/2000/svg">
<path d="M13.9578 0C13.1346 0 12.4904 0.644205 12.4904 1.46736V9.2336H5.22522L7.12204 7.51572C7.73046 6.97888 7.76625 6.04837 7.19362 5.43995C6.65678 4.83154 5.72626 4.79575 5.11785 5.36837L0.465259 9.66307C0.178946 9.94938 0 10.3431 0 10.7367C0 11.1304 0.178946 11.5241 0.465259 11.8104L5.11785 16.1051C5.40416 16.3556 5.76205 16.4988 6.11995 16.4988C6.51363 16.4988 6.90731 16.3556 7.19362 16.0335C7.73046 15.4251 7.69467 14.4946 7.12204 13.9578L5.22522 12.2399H12.4904V20.0061C12.4904 20.8293 13.1346 21.4735 13.9578 21.4735C14.7809 21.4735 15.4251 20.8293 15.4251 20.0061V1.46736C15.4609 0.644205 14.7809 0 13.9578 0Z" fill="white"/>
<path d="M33.5341 9.62728L28.8815 5.33258C28.2731 4.79575 27.3426 4.83154 26.8057 5.40416C26.2689 6.01258 26.3047 6.9431 26.8773 7.47993L28.7741 9.19781H21.5089V1.46736C21.5089 0.644205 20.8647 0 20.0416 0C19.2184 0 18.5742 0.644205 18.5742 1.46736V19.9346C18.5742 20.7577 19.2184 21.4019 20.0416 21.4019C20.8647 21.4019 21.5089 20.7577 21.5089 19.9346V12.1683H28.7741L26.8773 13.922C26.2689 14.4588 26.2331 15.3893 26.8057 15.9978C27.092 16.3199 27.4857 16.463 27.8794 16.463C28.2373 16.463 28.5952 16.3199 28.8815 16.0693L33.5341 11.7746C33.8204 11.4883 33.9993 11.0946 33.9993 10.701C33.9993 10.3073 33.8204 9.9136 33.5341 9.62728Z" fill="white"/>
</svg>
