<svg width="31" height="31" viewBox="0 0 31 31" fill="none" xmlns="http://www.w3.org/2000/svg">
<path d="M9.5118 16.7649C9.39627 17.1048 9.39627 17.1047 9.16522 17.6711L9.12671 17.7467C8.85714 18.4641 8.39503 19.3325 8.08696 19.8989C7.62485 20.1255 7.16273 20.352 6.50807 20.7296C5.12174 21.5225 4.15901 22.0889 3.81242 22.9951C3.61988 23.486 3.15776 24.6943 4.15901 25.4872C4.50559 25.7893 4.9677 25.9403 5.3913 25.9403C5.85342 25.9403 6.27702 25.7893 6.6236 25.4872C7.08571 25.0719 7.27826 24.6943 7.66335 23.9769C7.77888 23.7881 7.89441 23.5615 8.04845 23.2594C8.6646 22.0889 9.04969 21.296 9.12671 21.1827C9.12671 21.1449 9.16522 21.1072 9.20373 21.0694C9.47329 20.9562 9.78137 20.8429 10.128 20.6918C11.3988 20.1632 11.9379 20.0122 13.0932 19.6346L13.6323 19.4458C14.0559 19.2948 14.364 19.2192 14.672 19.106C15.0571 18.9549 15.3652 18.8794 15.6733 18.7661C15.9429 18.9927 16.2124 19.257 16.559 19.5213C17.2907 20.1255 17.7913 20.4275 18.3304 20.5786C18.7925 20.6918 19.4472 20.6541 19.8708 20.5408C21.2186 20.201 21.2571 19.2192 21.2957 18.8039C21.3342 18.2375 20.9876 17.2558 19.4857 16.9915C18.7925 16.8782 18.3304 16.8782 17.9068 16.8782C17.4832 16.8782 17.1366 16.916 16.5975 16.9915C16.4435 17.0292 16.2509 17.067 16.1354 17.067C15.7503 16.6894 15.4807 16.3118 15.0571 15.7454C14.2484 14.6127 13.7478 13.8197 12.9391 12.4227C12.8236 12.2339 12.7081 12.0073 12.5925 11.8185C12.6696 11.4787 12.7466 11.1011 12.8236 10.648L12.9391 10.1194C13.2472 8.68453 13.3242 8.19367 13.0932 7.02314C12.8236 5.73934 11.9379 5.43727 11.4758 5.47503C11.2447 5.47503 10.3205 5.62607 9.9354 6.94762C9.66584 7.85384 9.70435 8.53349 9.9354 9.47747C10.0894 10.1571 10.436 10.9878 11.0137 12.0073C10.8211 12.8002 10.5901 13.5177 10.1665 14.7259C9.78137 15.972 9.58882 16.4629 9.5118 16.7649ZM6.70062 22.5043C6.54658 22.7686 6.43106 23.0329 6.31553 23.2217C5.93043 23.9391 5.85342 24.0901 5.62236 24.3167C5.46832 24.43 5.27578 24.3544 5.16025 24.2789C5.12174 24.2412 5.00621 24.1656 5.27578 23.486C5.42981 23.1084 6.16149 22.6553 6.81615 22.24C6.81615 22.3532 6.73913 22.4287 6.70062 22.5043ZM17.9839 18.3508C18.3689 18.3508 18.754 18.3508 19.2932 18.4641C19.6783 18.5396 19.7938 18.6906 19.7938 18.7284C19.7938 18.8039 19.7938 18.9549 19.7938 18.9927C19.7938 18.9927 19.7553 19.0305 19.5627 19.0682C19.2932 19.1437 18.9081 19.1437 18.7925 19.106C18.6 19.0304 18.2919 18.9172 17.6373 18.3885C17.7528 18.3508 17.8683 18.3508 17.9839 18.3508ZM11.4758 7.32521C11.5143 7.21194 11.5528 7.09866 11.5913 7.0609C11.6298 7.09866 11.6298 7.17418 11.6683 7.28745C11.8224 8.11815 11.8224 8.38246 11.5913 9.47747C11.5528 9.36419 11.5143 9.25091 11.5143 9.1754C11.3217 8.3447 11.2832 7.92935 11.4758 7.32521ZM10.5901 18.2753L10.6286 18.1998C10.8596 17.5956 10.8596 17.5956 11.0137 17.218C11.0907 16.9537 11.2832 16.4251 11.7068 15.2168C11.8994 14.7259 12.0149 14.2728 12.1304 13.8952C12.7081 14.877 13.1702 15.6322 13.8634 16.5761C14.1329 16.916 14.3255 17.218 14.5565 17.4823C14.441 17.5201 14.3255 17.5579 14.2099 17.5956C13.9404 17.7089 13.6323 17.7844 13.2087 17.9354L12.6696 18.1242C11.7068 18.4263 11.1677 18.6151 10.282 18.9549C10.3975 18.7284 10.4745 18.5018 10.5901 18.2753ZM23.8758 18.1998V21.8246H18.9081C17.4447 21.8246 16.2124 23.0329 16.2124 24.4677V29.4519H4.58261C2.8882 29.4519 1.54037 28.0926 1.54037 26.3934V4.56882C1.54037 2.90743 2.92671 1.51035 4.58261 1.51035H20.8335C22.2969 1.51035 23.5292 2.5676 23.8373 3.96468C24.1068 3.92692 24.4149 3.92692 24.6845 3.92692C24.9155 3.92692 25.1466 3.92692 25.3776 3.96468C25.0696 1.73691 23.1441 0 20.795 0H4.58261C2.04099 0 0 2.03898 0 4.56882V26.4312C0 28.961 2.04099 31 4.58261 31H16.9826C17.0211 31 17.0981 31 17.1366 31C17.1752 31 17.1752 31 17.2137 30.9622C17.2522 30.9622 17.2522 30.9622 17.2907 30.9245C17.3292 30.9245 17.3292 30.8867 17.3677 30.8867C17.3677 30.8867 17.4062 30.8867 17.4062 30.849C17.4447 30.8112 17.4832 30.7734 17.5217 30.7357L25.1466 23.1462C25.1466 23.1462 25.1466 23.1084 25.1851 23.1084C25.2236 23.0706 25.2236 23.0706 25.2621 23.0329C25.2621 22.9951 25.3006 22.9951 25.3006 22.9574C25.3006 22.9196 25.3391 22.9196 25.3391 22.8819C25.3391 22.8441 25.3391 22.8441 25.3776 22.8063C25.3776 22.7686 25.3776 22.7686 25.3776 22.7308C25.3776 22.6931 25.3776 22.6175 25.3776 22.5798V18.1998C25.1466 18.2375 24.877 18.2375 24.646 18.2375C24.3764 18.2375 24.1068 18.2375 23.8758 18.1998ZM17.7528 28.3569V24.5055C17.7528 23.8636 18.2534 23.3727 18.9081 23.3727H22.7975L17.7528 28.3569ZM24.646 4.83313C21.1416 4.83313 18.2919 7.62728 18.2919 11.0633C18.2919 14.4994 21.1416 17.2935 24.646 17.2935C28.1503 17.2935 31 14.4994 31 11.0633C31 7.62728 28.1503 4.83313 24.646 4.83313ZM24.646 16.1608C21.7963 16.1608 19.4472 13.8575 19.4472 11.0633C19.4472 8.26918 21.7963 5.96589 24.646 5.96589C27.4957 5.96589 29.8447 8.26918 29.8447 11.0633C29.8447 13.8575 27.5342 16.1608 24.646 16.1608ZM26.0323 10.3459H23.2596C22.4124 10.3459 21.7193 11.0256 21.7193 11.8563V13.1778C21.7193 14.0085 22.4124 14.6882 23.2596 14.6882H26.0323C26.8795 14.6882 27.5727 14.0085 27.5727 13.1778V11.8563C27.5727 11.0256 26.8795 10.3459 26.0323 10.3459ZM26.4174 13.1778C26.4174 13.3666 26.2634 13.5554 26.0323 13.5554H23.2596C23.0671 13.5554 22.8745 13.4044 22.8745 13.1778V11.8563C22.8745 11.6675 23.0286 11.4787 23.2596 11.4787H26.0323C26.2248 11.4787 26.4174 11.6297 26.4174 11.8563V13.1778ZM25.3776 12.4982C25.3776 12.8758 25.0696 13.1778 24.6845 13.1778C24.2994 13.1778 23.9913 12.8758 23.9913 12.4982C23.9913 12.1206 24.2994 11.8185 24.6845 11.8185C25.0696 11.8185 25.3776 12.1206 25.3776 12.4982ZM23.1826 8.79781C22.9901 8.57125 22.9901 8.19367 23.2596 8.00487C23.6447 7.66504 24.1453 7.47625 24.6845 7.47625C25.8783 7.47625 26.841 8.42022 26.841 9.59074C26.841 9.89281 26.5714 10.1571 26.2634 10.1571C25.9553 10.1571 25.6857 9.89281 25.6857 9.59074C25.6857 9.06212 25.2236 8.60901 24.6845 8.60901C24.4534 8.60901 24.2224 8.68453 24.0298 8.83557C23.7603 9.06212 23.4137 9.06212 23.1826 8.79781Z" fill="white"/>
</svg>
