<svg width="25" height="33" viewBox="0 0 25 33" fill="none" xmlns="http://www.w3.org/2000/svg">
<path d="M12.5542 0.40332C8.27381 0.40332 4.77746 3.90404 4.77746 8.18528C4.77746 10.4871 5.79646 12.647 7.50758 14.1088C7.82768 14.3821 8.22248 15.1806 8.22261 15.3595L8.22866 16.6044C8.22866 17.0601 8.16073 17.0849 7.60817 17.3655C7.05561 17.6461 6.08735 17.8941 5.0317 18.1915C3.97605 18.489 2.80928 18.8442 1.81111 19.6311C0.812929 20.418 0.0796679 21.7338 0.0796679 23.3716C0.0796679 23.9157 0.0521332 24.6994 0.381045 25.5369C0.709832 26.3743 1.72127 27.2301 2.92206 27.2301H22.1333C23.3341 27.2301 24.3422 26.3767 24.6803 25.531C25.0184 24.6852 24.9994 23.8845 24.9994 23.289C24.9994 21.6678 24.265 20.3642 23.2679 19.5898C22.2709 18.8153 21.1112 18.4667 20.0592 18.1738C19.0071 17.8808 18.0391 17.6383 17.4886 17.3596C16.9381 17.0811 16.874 17.0544 16.874 16.6044V15.3595C16.8741 15.1723 17.2803 14.3604 17.5891 14.097C19.0875 12.8184 20.3181 10.795 20.3251 8.19118C20.3251 3.90991 16.8354 0.40332 12.5542 0.40332ZM12.5542 2.80458C15.5316 2.80458 17.9198 5.20146 17.9198 8.19118C17.9129 10.0626 17.0955 11.3638 16.0289 12.2739C15.1782 12.9998 14.4755 14.0212 14.4747 15.3595V16.5985C14.4747 16.6005 14.4747 16.6025 14.4747 16.6046C14.4747 17.9549 15.4281 19.003 16.4011 19.4956C17.3742 19.9881 18.4356 20.2081 19.4149 20.4808C20.3943 20.7533 21.264 21.0748 21.7905 21.4838C22.317 21.8927 22.6 22.2855 22.6 23.2891C22.6 23.8378 22.5481 24.4066 22.4523 24.6461C22.3566 24.8857 22.5335 24.8349 22.1332 24.8349H2.92192C2.52162 24.8349 2.70974 24.8911 2.62055 24.6639C2.53135 24.4368 2.48463 23.8894 2.48463 23.3719C2.48463 22.3435 2.77122 21.9304 3.30012 21.5134C3.82902 21.0965 4.70114 20.7748 5.68159 20.4986C6.66204 20.2225 7.72676 20.0023 8.70127 19.5074C9.67577 19.0126 10.6277 17.9584 10.6277 16.6047C10.6277 16.6027 10.6277 16.6007 10.6277 16.5987V15.3596C10.6268 14.013 9.90647 13.0024 9.06765 12.2858C7.88565 11.2761 7.18256 9.78289 7.18256 8.18537C7.18256 5.19571 9.57602 2.80458 12.5542 2.80458Z" fill="white"/>
<path d="M2.92231 24.7813C2.76383 24.7806 2.60679 24.8113 2.46025 24.8716C2.31371 24.9319 2.18057 25.0205 2.0685 25.1324C1.95644 25.2443 1.86766 25.3772 1.80729 25.5235C1.74693 25.6698 1.71618 25.8266 1.71681 25.9848V29.4776C1.71681 31.0635 3.02985 32.3744 4.6183 32.3744H20.4317C22.0201 32.3744 23.3332 31.0635 23.3332 29.4776V26.032C23.3329 25.7145 23.2064 25.41 22.9815 25.1855C22.7566 24.9609 22.4517 24.8347 22.1336 24.8344C21.8155 24.8347 21.5106 24.9609 21.2857 25.1855C21.0608 25.41 20.9343 25.7145 20.934 26.032V29.4776C20.934 29.7676 20.7222 29.9791 20.4317 29.9791H4.6183C4.32775 29.9791 4.12191 29.7676 4.12191 29.4776V25.9848C4.12253 25.8271 4.09197 25.6708 4.03198 25.5249C3.97198 25.379 3.88373 25.2463 3.77229 25.1345C3.66085 25.0227 3.52841 24.9339 3.38255 24.8733C3.23669 24.8127 3.0803 24.7814 2.92231 24.7813Z" fill="white"/>
</svg>
